<svg xmlns="http://www.w3.org/2000/svg" xmlns:xlink="http://www.w3.org/1999/xlink" viewBox="0 0 412.34 149"><defs><style>.cls-1{fill:none;}.cls-1,.cls-2,.cls-3{stroke:#000;stroke-miterlimit:10;}.cls-2{filter:url(#filter);}.cls-3{filter:url(#filter-2);}.cls-4{filter:url(#filter-3);}.cls-5{fill:#f4edec;}</style><filter id="filter" x="76.24" y="25" width="91" height="101" filterUnits="userSpaceOnUse"><feOffset input="SourceAlpha"/><feGaussianBlur stdDeviation="13" result="blur"/><feFlood/><feComposite operator="in" in2="blur"/><feComposite in="SourceGraphic"/></filter><filter id="filter-2" x="192.24" y="0" width="115" height="149" filterUnits="userSpaceOnUse"><feOffset input="SourceAlpha"/><feGaussianBlur stdDeviation="13" result="blur-2"/><feFlood/><feComposite operator="in" in2="blur-2"/><feComposite in="SourceGraphic"/></filter><filter id="filter-3"><feOffset input="SourceAlpha"/><feGaussianBlur stdDeviation="13" result="blur-3"/><feFlood/><feComposite operator="in" in2="blur-3"/><feComposite in="SourceGraphic"/></filter></defs><g id="Livello_2" data-name="Livello 2"><g id="Livello_1-2" data-name="Livello 1"><path class="cls-1" d="M.05,134.14h1a59,59,0,0,0,0-118h-1"/><path class="cls-1" d="M.05,109.94h1a34.8,34.8,0,0,0,0-69.6h-1"/><path class="cls-1" d="M.05,85.87c.33,0,.66,0,1,0a10.77,10.77,0,0,0,0-21.54c-.34,0-.67,0-1,.05"/><path class="cls-1" d="M116,134.45h1a59,59,0,0,0,0-118h-1"/><path class="cls-1" d="M116,110.24l1,0a34.8,34.8,0,0,0,0-69.6h-1"/><path class="cls-2" d="M116,86.18c.33,0,.66,0,1,0a10.77,10.77,0,1,0,0-21.53c-.34,0-.67,0-1,0"/><path class="cls-1" d="M231.87,133.45h1a59,59,0,1,0,0-118h-1"/><path class="cls-3" d="M231.87,109.24l1,0a34.8,34.8,0,1,0,0-69.6h-1"/><path class="cls-1" d="M231.87,85.18c.33,0,.66,0,1,0a10.77,10.77,0,1,0,0-21.53c-.34,0-.67,0-1,.05"/><g class="cls-4"><path class="cls-5" d="M343.37,143h1.15a67.81,67.81,0,1,0,0-135.62h-1.15"/><path class="cls-5" d="M343.37,115.15l1.15,0a40,40,0,0,0,0-80l-1.15,0"/><path class="cls-5" d="M343.37,87.49a11.06,11.06,0,0,0,1.15.05,12.37,12.37,0,1,0,0-24.74,11.06,11.06,0,0,0-1.15.05"/></g></g></g></svg>