<?xml version="1.0" encoding="utf-8"?>
<!-- Generator: Adobe Illustrator 26.1.0, SVG Export Plug-In . SVG Version: 6.00 Build 0)  -->
<svg version="1.1" id="Livello_1" xmlns="http://www.w3.org/2000/svg" xmlns:xlink="http://www.w3.org/1999/xlink" x="0px" y="0px"
	 viewBox="0 0 432.6 72" style="enable-background:new 0 0 432.6 72;" xml:space="preserve">
<style type="text/css">
	.st0{fill-rule:evenodd;clip-rule:evenodd;fill:#FFFFFF;}
	.st1{fill-rule:evenodd;clip-rule:evenodd;fill:#004494;stroke:#FFFFFF;stroke-width:2;}
	.st2{fill-rule:evenodd;clip-rule:evenodd;fill:#FFF100;}
	.st3{fill:#FFFFFF;}
</style>
<path class="st0" d="M13,24.5c0,0,39.8-5.2,41-5.4c1.7-0.3,3.3-0.6,4.7-1c3.2-0.9,6.2-2.2,8.8-4c2.5-1.7,4.9-4.2,7.2-6.9
	c1.5-1.7,3-4,4.5-6.2V0c-1.7,2.6-3.4,4.8-5.1,6.7c-2.3,2.6-4.7,4.7-7.2,6.3s-5.4,2.9-8.5,3.7c-1.4,0.4-2.9,0.6-4.6,0.9
	c-1.1,0.2-2.2,0.3-3.3,0.4C50,18,13,21.9,13,21.9V24.5z"/>
<g>
	<path class="st0" d="M66.4,17.8c-2.5,1.4-5.4,2.5-8.6,3.1c-1.4,0.3-2.8,0.5-4.5,0.7c-1,0.1-2,0.2-3,0.3c-0.5,0-1.1,0.1-1.6,0.1
		c-12.2,1.2-24.3,2.3-35.7,3.4V28c11.4-1.4,23.7-2.9,35.9-4.3c0.5-0.1,1.1-0.1,1.6-0.2c1-0.1,2-0.2,3-0.4c1.7-0.2,3.3-0.5,4.6-0.8
		c3.3-0.7,6.3-1.9,8.9-3.5c2.6-1.6,4.8-3.7,7.3-6.4c1.5-1.7,3.2-4,4.8-6.2v-1c-1.9,2.5-3.6,4.7-5.4,6.5
		C71.3,14.4,68.9,16.4,66.4,17.8"/>
</g>
<g>
	<path class="st0" d="M73.4,17.2c-2.4,2.2-5,4-7.5,5.3c-2.5,1.2-5.3,2.1-8.6,2.6c-1.4,0.2-2.8,0.4-4.5,0.6L13,28.9v2.6l35.3-3.8
		l4.6-0.5c1.7-0.2,3.2-0.4,4.6-0.7c3.4-0.6,6.3-1.6,8.9-2.9c2.7-1.4,5.3-3.6,7.8-6c1.7-1.6,3.2-3.7,4.9-5.8v-0.9
		C77.1,13.4,75.3,15.4,73.4,17.2"/>
</g>
<g>
	<path class="st0" d="M63.8,30.6c-2.3,1.3-4,2.1-7.3,2.4c-2,0.2-4,0.3-6,0.4c-1,0-1.9,0.1-2.9,0.2c-6,0.3-11.9,0.7-17.9,1.1L13,35.9
		v2.6l16.8-1.6c5.4-0.5,11.7-1.1,17.9-1.6l4.5-0.3c1.7-0.1,3.2-0.3,4.5-0.5c3.4-0.4,6.3-1.1,8.9-2.1c2.8-1,5.4-2.7,8-4.6
		c2.4-1.7,5.6-5.1,5.6-5.2v-0.9c-2.1,2.1-3.4,3.3-5.7,4.8C70.6,28.5,65.9,29.5,63.8,30.6"/>
</g>
<path class="st0" d="M64.6,35.6c-2.5,0.7-5.3,1.2-8.6,1.5c-1.3,0.1-2.8,0.2-4.4,0.3l-4.4,0.2c-11,0.5-22,1.1-34.1,1.7v2.6
	C24.7,41,36,40.1,47.4,39.3l4.4-0.3c1.7-0.1,3.1-0.2,4.5-0.4c3.4-0.4,6.3-1,8.8-1.8c2.8-0.9,5.6-2.2,8.2-3.9
	c1.9-1.2,3.9-2.7,5.9-4.5c-2.2,1.9-4.3,2.3-6.4,3.6C70.1,33.6,67.4,34.8,64.6,35.6"/>
<path class="st0" d="M64.2,39.9c-2.5,0.6-5.3,1-8.6,1.2c-1.3,0.1-2.7,0.2-4.4,0.2l-4.4,0.2c-11.1,0.4-22.3,0.9-33.8,1.4v2.6
	c11.4-0.8,22.6-1.5,33.9-2.3l4.4-0.3c1.7-0.1,3.1-0.2,4.4-0.3c3.4-0.3,6.2-0.8,8.8-1.5c2.9-0.8,5.7-1.9,8.4-3.3
	c2.1-1.1,4.1-2.4,6.2-4v-1.1c-2.3,1.7-4.5,3-6.7,4.1C69.8,38.2,67,39.2,64.2,39.9"/>
<g>
	<path class="st0" d="M63.8,44.1c-2.5,0.5-5.3,0.8-8.6,0.9c-1.3,0.1-2.6,0.1-4.3,0.2l-37.9,1v2.6L46.6,47l4.4-0.2
		c1.7-0.1,3.1-0.2,4.4-0.3c3.4-0.3,6.1-0.6,8.7-1.2c2.9-0.6,5.8-1.5,8.5-2.7c2.2-0.9,4.3-2,6.6-3.4v-1c-2.4,1.4-4.7,2.5-7,3.4
		C69.5,42.8,66.7,43.6,63.8,44.1"/>
</g>
<path class="st0" d="M63.5,48.3c-4.7,0.6-9.4,0.7-14.1,0.8c-1.1,0-2.1,0-3.2,0.1L13,49.8v2.6L46.3,51c1.1,0,2.1-0.1,3.2-0.1
	c4.7-0.2,9.5-0.4,14.2-1.1c3-0.5,5.9-1.2,8.5-2.1c2.2-0.7,4.5-1.7,6.8-2.9v-1c-2.4,1.1-4.9,2.1-7.2,2.8C69.3,47.3,66.5,48,63.5,48.3
	"/>
<g>
	<path class="st0" d="M63.3,52.6C58.9,53,54.5,53,50.1,53h-4c-11,0-22,0.1-33.1,0.2v2.6c10.6-0.4,21.9-0.7,33.2-1.1
		c1.3,0,2.7-0.1,4-0.1c4.3-0.1,8.8-0.2,13.2-0.7c3.1-0.3,5.9-0.8,8.6-1.5c2.3-0.6,4.7-1.4,7.2-2.3v-0.9c-2.5,0.9-5,1.6-7.4,2.2
		C69.1,52,66.3,52.4,63.3,52.6"/>
</g>
<path class="st0" d="M63.1,56.8c-1.8,0.1-3.8,0.1-6,0.1h-2.5L46,56.8c-5.9,0-11.7-0.1-17.2-0.1L13,56.8v2.6L28.9,59
	c5.5-0.1,11.3-0.3,17.1-0.4l8.6-0.1c2.4,0,5.5-0.1,8.6-0.3s5.9-0.5,8.6-0.9c2.4-0.4,4.9-0.9,7.4-1.5v-0.9c-2.5,0.6-5.1,1.1-7.5,1.4
	C68.9,56.5,66.2,56.7,63.1,56.8"/>
<path class="st0" d="M54.5,60.9l-8.6-0.1C35,60.6,24.1,60.4,13,60.2v2.6c10.6-0.1,21.8-0.2,32.9-0.3l8.6-0.1c2.9,0,5.7-0.1,8.6-0.2
	c5.9-0.2,11.1-0.6,16.1-1.3V60c-4.9,0.5-10.2,0.8-16.1,0.9H54.5"/>
<path class="st0" d="M79.1,65.5L13,63.8v2.6h66.1V65.5z"/>
<path class="st0" d="M73.2,22c-2.5,2-4.5,3.5-7.5,4.7c-2.7,1.1-5.6,1.5-8.8,2c-2.1,0.3-4.3,0.7-6.4,0.9c-0.9,0.1-1.7,0.1-2.6,0.2
	L13,32.3v2.6l34.9-3.4l4.5-0.4c1.7-0.2,3.2-0.3,4.6-0.6c3.4-0.5,6.3-1.4,8.9-2.6c2.7-1.2,5.5-3.2,8-5.3c1.7-1.5,3.4-3.3,5.2-5.3
	v-0.9C76.9,18.6,75.1,20.5,73.2,22"/>
<path class="st0" d="M107.2,0c0,0,11.9,18.9,14.1,22.4s4.7,6.2,13.5,8.1s12.6,2.7,12.6,2.7v0.7c0,0-5.6-1.2-12.8-2.8
	c-7.2-1.6-10.1-2.1-13.4-6.7c-2.7-3.8-14-19.9-14-19.9S107.2,0,107.2,0z"/>
<path class="st0" d="M107.2,21.6c0,0,10.8,11.3,14,14.6c3.3,3.5,7.6,4.7,13.5,5.8c5.6,1,12.7,2.2,12.7,2.2v0.6c0,0-6.7-1.1-12.7-2.1
	c-5.9-1-10.1-1.6-13.5-4.7c-3-2.8-13.9-13-13.9-13L107.2,21.6z"/>
<path class="st0" d="M107.2,26.8c0,0,10.3,9.6,14,12.8c3.4,3,6.1,3.9,13.5,5.3c7.4,1.3,12.7,2.1,12.7,2.1v0.7c0,0-6.7-1.1-12.7-2.1
	s-9.9-1.3-13.5-4.3c-4.2-3.4-14-11.4-14-11.4V26.8z"/>
<path class="st0" d="M107.2,32.2c0,0,11.8,9.3,14,11c2.2,1.6,5.1,3.5,13.5,4.8c8.4,1.2,12.7,1.8,12.7,1.8v0.7c0,0-7.6-1.1-12.7-1.7
	c-5.1-0.6-9-0.9-13.5-3.9c-4.4-2.9-14-9.7-14-9.7V32.2z"/>
<path class="st0" d="M107.2,37.4c0,0,11.8,7.9,14,9.1c2.2,1.2,4.9,3.3,13.5,4.4c8.6,1.1,12.7,1.6,12.7,1.6v0.7c0,0-7.1-0.8-12.7-1.4
	c-5.6-0.6-9.4-1.4-13.5-3.7s-14-8-14-8V37.4z"/>
<path class="st0" d="M107.2,42.7c0,0,10.4,5.7,14,7.4c3.9,2,7.3,2.9,13.5,3.7c6.1,0.7,12.7,1.4,12.7,1.4v0.6c0,0-6.1-0.7-12.7-1.3
	c-6.5-0.6-8.8-0.9-13.5-3c-4.2-1.9-14-6.4-14-6.4V42.7z"/>
<path class="st0" d="M107.2,48c0,0,8.2,3.5,14,5.8c5.7,2.3,10,2.5,13.5,2.8c1.5,0.2,12.6,1.3,12.6,1.3v0.6c0,0-6.6-0.5-12.7-1.1
	c-6-0.5-8.6-0.8-13.5-2.4s-14-4.8-14-4.8L107.2,48z"/>
<path class="st0" d="M107.2,53.4c0,0,8.3,2.6,14,4.1s10.9,2.1,13.5,2.3s12.7,1,12.7,1v0.6c0,0-5.7-0.4-12.7-0.9
	c-5.7-0.4-10.2-0.8-13.5-1.6c-3.7-0.8-14-3.3-14-3.3V53.4z"/>
<path class="st0" d="M107.2,58.7c0,0,6.8,1.2,14,2.4c5.4,0.9,12.7,1.5,13.5,1.5s12.7,0.9,12.7,0.9v0.6c0,0-7.6-0.4-12.7-0.7
	c-5.3-0.3-10.5-0.6-13.5-0.9c-6.7-0.7-14-1.6-14-1.6V58.7z"/>
<path class="st0" d="M107.2,64.3c0,0,10.7,0.4,14,0.5s26.2,1,26.2,1v0.6h-40.2V64.3z"/>
<path class="st0" d="M134.7,33.4c-9.7-2.1-11.9-5.6-13.5-7.8S107.3,5.4,107.3,5.4v4.1c0.5,0.6,11,14.4,14,18.2
	c3.3,4.3,8.5,5.3,13.5,6.3c5,1.1,12.7,2.6,12.7,2.6V36C147.4,36,137.2,34,134.7,33.4"/>
<path class="st0" d="M134.7,36.3c-8-1.6-11.2-4.1-13.5-7.1c-2.3-3.1-13.9-18.3-13.9-18.3v3.8c0.5,0.6,11.1,13.1,13.9,16.4
	c3.3,3.8,7.9,4.8,13.5,5.8s12.7,2.4,12.7,2.4v-0.6C147.4,38.7,139.3,37.2,134.7,36.3"/>
<path class="st0" d="M134.7,39.2c-8.3-1.6-10-2.9-13.5-6.8c-2.2-2.4-13.5-15.7-14-16.3v3.5c0,0,10.5,11.2,13.9,14.6
	c4.4,4.4,8.6,4.7,13.5,5.6c4.9,0.9,12.7,2.3,12.7,2.3v-0.6C147.4,41.5,138,39.9,134.7,39.2"/>
<path class="st1" d="M40.5,66.3h57.9V27.6H40.5V66.3z"/>
<path class="st2" d="M70.1,33.1h2l-1.6,1.3l0.6,2l-1.6-1.2l-1.6,1.2l0.6-2l-1.6-1.3h2l0.6-2L70.1,33.1z"/>
<path class="st2" d="M70.1,58.9h2l-1.6,1.2l0.6,1.9l-1.6-1.2L67.9,62l0.6-1.9l-1.6-1.2h2l0.6-1.9L70.1,58.9z"/>
<path class="st2" d="M76.5,57.2h2l-1.6,1.2l0.6,1.9l-1.6-1.2l-1.6,1.2l0.6-1.9l-1.6-1.2h2l0.6-1.9L76.5,57.2z"/>
<path class="st2" d="M76.5,34.8h2L76.9,36l0.6,1.9l-1.6-1.2L74.3,38l0.7-2l-1.6-1.2h2l0.6-1.9L76.5,34.8z"/>
<path class="st2" d="M81.3,39.6h2l-1.6,1.2l0.6,1.9l-1.6-1.2l-1.6,1.2l0.6-1.9l-1.6-1.2h2l0.6-1.9L81.3,39.6z"/>
<path class="st2" d="M81.3,52.6h2l-1.6,1.2l0.6,1.9l-1.6-1.2l-1.6,1.2l0.6-1.9l-1.6-1.2h2l0.6-1.9L81.3,52.6z"/>
<path class="st2" d="M83.1,46h2l-1.6,1.2l0.6,1.9l-1.6-1.2l-1.6,1.2l0.6-1.9L79.8,46h2l0.6-1.9L83.1,46z"/>
<path class="st2" d="M63.5,34.8h2L63.9,36l0.6,1.9L63,36.8L61.3,38l0.6-1.9l-1.6-1.2h2L63,33L63.5,34.8z"/>
<path class="st2" d="M58.9,39.6h2l-1.6,1.2l0.6,1.9l-1.6-1.2l-1.6,1.2l0.6-1.9l-1.6-1.2h2l0.6-1.9L58.9,39.6z"/>
<path class="st2" d="M57.2,46h2l-1.6,1.2l0.6,1.9l-1.6-1.2L55,49.1l0.6-1.9L54,46h2l0.6-1.9L57.2,46z"/>
<path class="st2" d="M58.9,52.6h2l-1.6,1.2l0.6,1.9l-1.6-1.2l-1.6,1.2l0.6-1.9l-1.6-1.2h2l0.6-1.9L58.9,52.6z"/>
<path class="st2" d="M63.6,57.3h2L64,58.5l0.6,1.9L63,59.2l-1.6,1.2l0.6-1.9l-1.6-1.2h2l0.6-1.9L63.6,57.3z"/>
<path class="st0" d="M156.4,33.1c0-0.3,0.1-0.4,0.4-0.4h7.4c0.3,0,0.4,0.1,0.4,0.4v1.2c0,0.2-0.1,0.4-0.4,0.4h-5.5v3.5h4.9
	c0.3,0,0.4,0.1,0.4,0.4v1.2c0,0.2-0.1,0.4-0.4,0.4h-4.9v4h5.6c0.2,0,0.4,0.1,0.4,0.4v1.2c0,0.2-0.1,0.4-0.4,0.4h-7.5
	c-0.3,0-0.4-0.1-0.4-0.4V33.1z"/>
<path class="st0" d="M174.8,46.1h-1.4c-0.1,0-0.2,0-0.3-0.1s-0.1-0.2-0.1-0.3V45c-0.2,0.1-0.4,0.3-0.7,0.4c-0.3,0.1-0.5,0.3-0.8,0.4
	c-0.3,0.1-0.6,0.2-0.9,0.3c-0.3,0.1-0.6,0.1-0.9,0.1c-0.7,0-1.2-0.1-1.6-0.3c-0.4-0.2-0.7-0.4-0.9-0.8c-0.2-0.3-0.3-0.7-0.4-1.2
	c-0.1-0.5-0.1-0.9-0.1-1.5v-5.9c0-0.3,0.1-0.4,0.4-0.4h1.5c0.2,0,0.4,0.1,0.4,0.4v5.6c0,0.3,0,0.6,0.1,0.8c0,0.2,0.1,0.4,0.2,0.6
	c0.1,0.2,0.3,0.3,0.4,0.4c0.1,0.1,0.4,0.1,0.7,0.1c0.2,0,0.4,0,0.7-0.1s0.5-0.2,0.8-0.3s0.5-0.2,0.7-0.3s0.4-0.2,0.5-0.3v-6.7
	c0-0.1,0-0.2,0.1-0.3s0.2-0.1,0.3-0.1h1.4c0.3,0,0.4,0.1,0.4,0.4v9.1C175.2,45.9,175.1,46.1,174.8,46.1"/>
<path class="st0" d="M179.9,45.7c0,0.3-0.1,0.4-0.4,0.4H178c-0.3,0-0.4-0.1-0.4-0.4v-9.1c0-0.3,0.1-0.4,0.4-0.4h1.4
	c0.3,0,0.4,0.1,0.4,0.4v0.9c0.1-0.1,0.3-0.3,0.6-0.4c0.2-0.2,0.5-0.3,0.8-0.4c0.3-0.1,0.6-0.2,0.8-0.4c0.3-0.1,0.5-0.2,0.8-0.2h0.3
	c0.1,0,0.1,0.1,0.2,0.3l0.1,1.3V38c0,0.1-0.1,0.1-0.4,0.2c-0.3,0.1-0.6,0.1-0.9,0.2c-0.3,0.1-0.6,0.2-0.9,0.2
	c-0.3,0.1-0.6,0.2-0.8,0.3c-0.3,0.1-0.5,0.2-0.6,0.2L179.9,45.7z"/>
<path class="st0" d="M190.9,41.1c0-0.5,0-1-0.1-1.4s-0.2-0.7-0.3-1c-0.2-0.3-0.4-0.5-0.7-0.6s-0.6-0.2-1.1-0.2c-0.4,0-0.8,0.1-1,0.2
	c-0.2,0.1-0.5,0.3-0.6,0.6c-0.2,0.3-0.3,0.6-0.3,1c-0.1,0.4-0.1,0.9-0.1,1.4s0,1,0.1,1.4s0.2,0.7,0.3,1s0.4,0.5,0.6,0.6
	c0.2,0.1,0.6,0.2,1,0.2c0.5,0,0.8-0.1,1.1-0.2c0.3-0.1,0.5-0.3,0.7-0.6s0.3-0.6,0.3-1C190.9,42.1,190.9,41.7,190.9,41.1 M193.2,41
	c0,0.6,0,1.2-0.1,1.8s-0.3,1.2-0.6,1.7s-0.7,0.9-1.3,1.3c-0.6,0.3-1.4,0.5-2.4,0.5s-1.8-0.2-2.4-0.5c-0.6-0.3-1-0.7-1.3-1.3
	c-0.3-0.5-0.5-1.1-0.5-1.7c-0.1-0.6-0.1-1.2-0.1-1.8c0-0.5,0-1,0.1-1.6s0.3-1.1,0.6-1.6s0.7-0.9,1.3-1.3c0.6-0.3,1.3-0.5,2.3-0.5
	s1.8,0.1,2.3,0.4c0.6,0.3,1,0.7,1.3,1.2s0.5,1,0.6,1.6C193.1,39.8,193.2,40.4,193.2,41"/>
<path class="st0" d="M201.5,41.1c0-0.6,0-1.2-0.1-1.5s-0.2-0.7-0.3-0.9s-0.3-0.4-0.5-0.4c-0.2-0.1-0.4-0.1-0.7-0.1
	c-0.2,0-0.4,0-0.7,0.1s-0.5,0.1-0.8,0.2c-0.2,0.1-0.5,0.2-0.7,0.3s-0.4,0.2-0.6,0.3v5c0.5,0.1,0.9,0.2,1.2,0.3s0.7,0.1,1.1,0.1
	c0.4,0,0.7-0.1,0.9-0.2c0.2-0.1,0.4-0.3,0.6-0.5c0.2-0.3,0.3-0.6,0.3-1C201.5,42.2,201.5,41.7,201.5,41.1 M203.8,41.1
	c0,0.8-0.1,1.5-0.2,2.2c-0.1,0.6-0.3,1.2-0.6,1.6c-0.3,0.4-0.7,0.8-1.2,1s-1.2,0.3-2,0.3c-0.3,0-0.7,0-1.2-0.1
	c-0.4-0.1-0.9-0.2-1.4-0.3v3.5c0,0.1,0,0.2-0.1,0.3s-0.2,0.1-0.3,0.1h-1.4c-0.2,0-0.3,0-0.3-0.1s-0.1-0.2-0.1-0.3V36.6
	c0-0.3,0.1-0.4,0.4-0.4h1.4c0.1,0,0.2,0,0.3,0.1s0.1,0.2,0.1,0.3v0.6h0.1c0.2-0.1,0.4-0.2,0.6-0.4c0.2-0.1,0.5-0.3,0.8-0.4
	c0.3-0.1,0.6-0.2,0.9-0.3c0.3-0.1,0.6-0.1,0.9-0.1c0.7,0,1.2,0.1,1.6,0.4c0.4,0.2,0.8,0.6,1,1s0.4,1,0.5,1.6
	C203.8,39.6,203.8,40.3,203.8,41.1"/>
<path class="st0" d="M209.7,37.8c-0.4,0-0.7,0.1-0.9,0.2c-0.2,0.1-0.4,0.3-0.6,0.5c-0.2,0.2-0.3,0.5-0.3,0.8c-0.1,0.3-0.1,0.6-0.1,1
	h4c0-0.3,0-0.6-0.1-0.9c-0.1-0.3-0.2-0.5-0.3-0.8s-0.3-0.4-0.6-0.5C210.4,37.9,210.1,37.8,209.7,37.8L209.7,37.8z M207.7,41.7
	c0,0.5,0.1,0.9,0.2,1.3c0.1,0.3,0.3,0.6,0.5,0.8s0.4,0.3,0.7,0.4c0.3,0.1,0.6,0.1,1.1,0.1c0.4,0,0.8,0,1.3-0.1s0.9-0.1,1.3-0.1h0.4
	c0.1,0,0.1,0.1,0.2,0.3l0.1,0.7v0.4c0,0.1-0.1,0.2-0.3,0.3s-0.4,0.2-0.7,0.2s-0.5,0.1-0.8,0.2c-0.3,0.1-0.6,0.1-0.9,0.1H210
	c-1,0-1.7-0.1-2.3-0.4c-0.6-0.3-1-0.7-1.3-1.1c-0.3-0.5-0.5-1-0.6-1.6s-0.2-1.2-0.2-1.9c0-0.5,0-1,0.1-1.6s0.3-1.2,0.6-1.7
	s0.7-1,1.3-1.3c0.6-0.4,1.3-0.5,2.3-0.5c0.9,0,1.6,0.1,2.2,0.4c0.6,0.3,1,0.6,1.3,1s0.5,0.9,0.6,1.4s0.2,1.1,0.2,1.6
	c0,0.4,0,0.7-0.2,0.9s-0.4,0.3-0.8,0.3h-5.5L207.7,41.7L207.7,41.7z"/>
<path class="st0" d="M221.9,41.6h-2.4c-0.5,0-0.9,0.1-1.2,0.4c-0.3,0.2-0.4,0.7-0.4,1.3c0,0.4,0.1,0.7,0.3,0.9s0.5,0.3,1,0.3
	c0.2,0,0.4,0,0.7-0.1s0.5-0.1,0.8-0.2c0.3-0.1,0.5-0.2,0.7-0.3s0.5-0.2,0.6-0.3v-2C222,41.6,221.9,41.6,221.9,41.6z M222,44.9
	c-0.5,0.4-1.1,0.7-1.7,0.9c-0.6,0.2-1.3,0.4-2,0.4c-0.5,0-1-0.1-1.3-0.2c-0.4-0.1-0.6-0.3-0.8-0.6c-0.2-0.2-0.4-0.5-0.4-0.9
	c-0.1-0.3-0.1-0.7-0.1-1.2c0-1.2,0.3-2,0.9-2.6c0.6-0.5,1.6-0.8,2.8-0.8h2.6v-0.5c0-0.3,0-0.5-0.1-0.8c-0.1-0.2-0.2-0.4-0.3-0.5
	c-0.2-0.1-0.4-0.2-0.6-0.3c-0.3-0.1-0.6-0.1-1-0.1h-0.6h-0.7c-0.2,0-0.5,0-0.7,0.1c-0.2,0-0.5,0-0.7,0.1h-0.4
	c-0.1,0-0.1-0.1-0.2-0.3l-0.2-0.7v-0.3c0.1-0.1,0.2-0.2,0.4-0.3s0.5-0.1,0.8-0.2c0.3-0.1,0.6-0.1,0.9-0.1c0.3,0,0.6-0.1,0.9-0.1h0.8
	c0.9,0,1.6,0.1,2.1,0.3s0.9,0.4,1.2,0.7s0.4,0.7,0.5,1.2s0.1,1,0.1,1.5v3.9V44c0,0.1,0.1,0.2,0.1,0.3s0.1,0.1,0.2,0.1
	c0.1,0,0.2,0,0.4,0.1c0.1,0,0.2,0,0.3,0.1c0.1,0,0.1,0.1,0.1,0.2v0.8c0,0.2-0.2,0.4-0.5,0.4c-0.2,0-0.3,0-0.5,0.1h-0.5
	c-0.5,0-0.8-0.1-1.1-0.3C222.3,45.7,222.1,45.4,222,44.9L222,44.9z"/>
<path class="st0" d="M235.1,46c-0.1,0.1-0.2,0.1-0.3,0.1h-1.5c-0.3,0-0.4-0.1-0.4-0.4v-5.6c0-0.6-0.1-1.1-0.3-1.4
	c-0.2-0.4-0.6-0.5-1.2-0.5c-0.2,0-0.4,0-0.7,0.1s-0.5,0.2-0.8,0.3s-0.5,0.2-0.7,0.3s-0.4,0.2-0.5,0.3v6.7c0,0.3-0.1,0.4-0.4,0.4
	h-1.4c-0.3,0-0.4-0.1-0.4-0.4v-9.1c0-0.3,0.1-0.4,0.4-0.4h1.4c0.3,0,0.4,0.1,0.4,0.4v0.6c0.2-0.1,0.4-0.3,0.7-0.4
	c0.3-0.1,0.5-0.3,0.8-0.4l0.9-0.3c0.3-0.1,0.6-0.1,0.9-0.1c0.7,0,1.2,0.1,1.6,0.3c0.4,0.2,0.7,0.5,0.9,0.8s0.3,0.8,0.4,1.2
	C235,39,235,39.4,235,40v5.8C235.1,45.8,235.1,45.9,235.1,46"/>
<path class="st0" d="M156.2,59.8c0-0.9,0.1-1.7,0.2-2.5c0.1-0.8,0.4-1.6,0.8-2.2c0.4-0.6,0.9-1.2,1.6-1.6c0.7-0.4,1.6-0.6,2.8-0.6
	h0.8c0.3,0,0.6,0.1,1,0.1c0.3,0,0.7,0.1,1,0.2c0.3,0.1,0.6,0.2,0.9,0.3c0.2,0.1,0.3,0.1,0.3,0.2c0,0.1,0.1,0.2,0.1,0.4l-0.2,0.8
	c0,0.1-0.1,0.2-0.1,0.3c-0.1,0.1-0.2,0.1-0.4,0c-0.5-0.1-1-0.1-1.6-0.2c-0.6-0.1-1.1-0.1-1.6-0.1c-0.7,0-1.2,0.1-1.6,0.4
	c-0.4,0.3-0.7,0.6-1,1c-0.2,0.4-0.4,1-0.4,1.5s-0.1,1.2-0.1,1.9s0,1.3,0.1,1.8c0.1,0.6,0.2,1.1,0.5,1.5c0.2,0.4,0.5,0.8,1,1
	c0.4,0.2,0.9,0.4,1.6,0.4c0.6,0,1.1,0,1.6-0.1s1-0.1,1.6-0.2h0.4c0.1,0.1,0.1,0.1,0.2,0.3l0.2,0.8c0.1,0.3,0,0.5-0.3,0.6
	c-0.2,0.1-0.5,0.2-0.9,0.3c-0.3,0.1-0.7,0.1-1,0.2s-0.7,0.1-1,0.1h-0.9c-1.1,0-2-0.2-2.7-0.6s-1.3-0.9-1.6-1.5
	c-0.4-0.6-0.7-1.3-0.8-2.1C156.3,61.5,156.2,60.7,156.2,59.8"/>
<path class="st0" d="M173.6,61.4c0-0.5,0-1-0.1-1.4s-0.2-0.7-0.3-1c-0.2-0.3-0.4-0.5-0.7-0.6s-0.6-0.2-1.1-0.2c-0.4,0-0.8,0.1-1,0.2
	c-0.2,0.1-0.5,0.3-0.6,0.6c-0.2,0.3-0.3,0.6-0.3,1c-0.1,0.4-0.1,0.9-0.1,1.4s0,1,0.1,1.4s0.2,0.7,0.3,1c0.1,0.3,0.4,0.5,0.6,0.6
	c0.2,0.1,0.6,0.2,1,0.2c0.5,0,0.8-0.1,1.1-0.2s0.5-0.3,0.7-0.6c0.2-0.3,0.3-0.6,0.3-1S173.6,62,173.6,61.4 M175.9,61.3
	c0,0.6,0,1.2-0.1,1.8s-0.3,1.2-0.6,1.7s-0.7,0.9-1.3,1.3c-0.6,0.3-1.4,0.5-2.4,0.5s-1.8-0.2-2.4-0.5c-0.6-0.3-1-0.7-1.3-1.3
	c-0.3-0.5-0.5-1.1-0.5-1.7c-0.1-0.6-0.1-1.2-0.1-1.8c0-0.5,0-1,0.1-1.6s0.3-1.1,0.6-1.6s0.7-0.9,1.3-1.3c0.6-0.3,1.3-0.5,2.3-0.5
	s1.8,0.1,2.3,0.4c0.6,0.3,1,0.7,1.3,1.2s0.5,1,0.6,1.6C175.8,60.1,175.9,60.7,175.9,61.3"/>
<path class="st0" d="M192.2,66.3c0,0.1-0.1,0.1-0.3,0.1h-1.4c-0.3,0-0.4-0.1-0.4-0.4v-5.7c0-0.7-0.1-1.3-0.3-1.5
	c-0.2-0.3-0.6-0.4-1.1-0.4c-0.2,0-0.4,0-0.6,0.1c-0.2,0.1-0.5,0.1-0.7,0.2c-0.2,0.1-0.5,0.2-0.7,0.3s-0.4,0.2-0.6,0.3v0.4v0.6V66
	c0,0.1,0,0.2-0.1,0.3c-0.1,0.1-0.2,0.1-0.3,0.1h-1.5c-0.2,0-0.3-0.1-0.3-0.4v-5.8c0-0.6-0.1-1.1-0.3-1.4c-0.2-0.3-0.5-0.4-1-0.4
	c-0.2,0-0.4,0-0.6,0.1c-0.2,0.1-0.4,0.1-0.7,0.2c-0.2,0.1-0.5,0.2-0.7,0.3s-0.4,0.2-0.6,0.3V66c0,0.3-0.1,0.4-0.4,0.4h-1.4
	c-0.2,0-0.4-0.1-0.4-0.4v-9.1c0-0.3,0.1-0.4,0.4-0.4h1.4c0.3,0,0.4,0.1,0.4,0.4v0.6c0.2-0.1,0.4-0.3,0.6-0.4
	c0.2-0.1,0.5-0.3,0.7-0.4c0.2-0.1,0.5-0.2,0.8-0.3s0.5-0.1,0.8-0.1c0.6,0,1.1,0.1,1.6,0.3s0.9,0.6,1.2,1.1c0.5-0.4,1.1-0.7,1.7-1
	c0.6-0.3,1.2-0.4,1.9-0.4s1.2,0.1,1.6,0.3c0.4,0.2,0.7,0.5,0.9,0.8s0.3,0.7,0.4,1.2c0.1,0.5,0.1,0.9,0.1,1.4v6
	C192.2,66.1,192.2,66.2,192.2,66.3"/>
<path class="st0" d="M208.7,66.3c0,0.1-0.1,0.1-0.3,0.1H207c-0.3,0-0.4-0.1-0.4-0.4v-5.7c0-0.7-0.1-1.3-0.3-1.5
	c-0.2-0.3-0.6-0.4-1.1-0.4c-0.2,0-0.4,0-0.6,0.1c-0.2,0.1-0.5,0.1-0.7,0.2c-0.2,0.1-0.5,0.2-0.7,0.3s-0.4,0.2-0.6,0.3v0.4v0.6V66
	c0,0.1,0,0.2-0.1,0.3c-0.1,0.1-0.2,0.1-0.3,0.1h-1.5c-0.2,0-0.3-0.1-0.3-0.4v-5.8c0-0.6-0.1-1.1-0.3-1.4c-0.2-0.3-0.5-0.4-1-0.4
	c-0.2,0-0.4,0-0.6,0.1c-0.2,0.1-0.4,0.1-0.7,0.2c-0.3,0.1-0.5,0.2-0.7,0.3s-0.4,0.2-0.6,0.3V66c0,0.3-0.1,0.4-0.4,0.4h-1.4
	c-0.2,0-0.4-0.1-0.4-0.4v-9.1c0-0.3,0.1-0.4,0.4-0.4h1.4c0.3,0,0.4,0.1,0.4,0.4v0.6c0.2-0.1,0.4-0.3,0.6-0.4
	c0.2-0.1,0.5-0.3,0.7-0.4c0.3-0.1,0.5-0.2,0.8-0.3s0.5-0.1,0.8-0.1c0.6,0,1.1,0.1,1.6,0.3s0.9,0.6,1.2,1.1c0.5-0.4,1.1-0.7,1.7-1
	c0.6-0.3,1.2-0.4,1.9-0.4s1.2,0.1,1.6,0.3c0.4,0.2,0.7,0.5,0.9,0.8s0.3,0.7,0.4,1.2c0.1,0.5,0.1,0.9,0.1,1.4v6
	C208.8,66.1,208.7,66.2,208.7,66.3"/>
<path class="st0" d="M213.4,66c0,0.1,0,0.2-0.1,0.3c0,0.1-0.1,0.1-0.3,0.1h-1.4c-0.3,0-0.4-0.1-0.4-0.4v-9.1c0-0.3,0.1-0.4,0.4-0.4
	h1.4c0.1,0,0.2,0,0.3,0.1c0,0.1,0.1,0.2,0.1,0.3V66z M213.5,53.9v0.5c0,0.1-0.1,0.3-0.2,0.4c-0.1,0.1-0.2,0.2-0.4,0.3
	s-0.4,0.1-0.6,0.1c-0.3,0-0.5,0-0.6-0.1c-0.2-0.1-0.3-0.2-0.4-0.3c-0.1-0.1-0.1-0.2-0.2-0.4V54c0-0.3,0.1-0.6,0.2-0.8
	c0.2-0.2,0.5-0.3,1-0.3s0.8,0.1,1,0.3C213.4,53.3,213.5,53.6,213.5,53.9L213.5,53.9z"/>
<path class="st0" d="M223.2,63.4c0,0.6-0.1,1.1-0.3,1.5s-0.5,0.7-0.9,1c-0.4,0.2-0.8,0.4-1.3,0.5s-1,0.2-1.5,0.2s-1.1,0-1.6-0.1
	c-0.6-0.1-1.1-0.2-1.5-0.3c-0.2-0.1-0.3-0.2-0.4-0.3c-0.1-0.1-0.1-0.2,0-0.4l0.1-0.7c0-0.2,0.1-0.3,0.2-0.3h0.4
	c0.2,0,0.5,0.1,0.7,0.1c0.3,0,0.5,0,0.8,0.1c0.3,0,0.5,0,0.7,0.1h0.6c0.6,0,1.1-0.1,1.4-0.3c0.3-0.2,0.4-0.5,0.4-0.9
	c0-0.2,0-0.4-0.1-0.6c-0.1-0.2-0.1-0.3-0.3-0.4c-0.2-0.1-0.3-0.2-0.5-0.2c-0.2-0.1-0.5-0.1-0.8-0.2c-0.5-0.1-1-0.2-1.4-0.3
	s-0.8-0.3-1.2-0.5c-0.3-0.2-0.6-0.5-0.8-0.8s-0.3-0.8-0.3-1.3c0-1,0.3-1.7,1-2.3c0.7-0.5,1.6-0.8,2.7-0.8h0.7c0.3,0,0.5,0,0.8,0.1
	c0.3,0,0.5,0.1,0.8,0.1s0.5,0.1,0.7,0.2c0.3,0.1,0.5,0.3,0.4,0.6l-0.2,0.7c0,0.1-0.1,0.2-0.2,0.3h-0.4c-0.4-0.1-0.9-0.1-1.4-0.2
	c-0.5,0-0.9-0.1-1.3-0.1c-0.6,0-1.1,0.1-1.3,0.3s-0.3,0.5-0.3,0.9s0.1,0.6,0.4,0.8c0.3,0.1,0.7,0.2,1.3,0.3c0.5,0.1,0.9,0.2,1.4,0.3
	s0.8,0.3,1.2,0.5c0.3,0.2,0.6,0.5,0.8,0.9C223.1,62.3,223.2,62.8,223.2,63.4"/>
<path class="st0" d="M232.4,63.4c0,0.6-0.1,1.1-0.3,1.5s-0.5,0.7-0.9,1c-0.4,0.2-0.8,0.4-1.3,0.5s-1,0.2-1.5,0.2s-1.1,0-1.6-0.1
	c-0.6-0.1-1.1-0.2-1.5-0.3c-0.2-0.1-0.3-0.2-0.4-0.3c-0.1-0.1-0.1-0.2,0-0.4l0.1-0.7c0-0.2,0.1-0.3,0.2-0.3h0.4
	c0.2,0,0.5,0.1,0.7,0.1c0.3,0,0.5,0,0.8,0.1c0.3,0,0.5,0,0.7,0.1h0.6c0.6,0,1.1-0.1,1.4-0.3c0.3-0.2,0.4-0.5,0.4-0.9
	c0-0.2,0-0.4-0.1-0.6c-0.1-0.2-0.1-0.3-0.3-0.4c-0.2-0.1-0.3-0.2-0.5-0.2c-0.2-0.1-0.5-0.1-0.8-0.2c-0.5-0.1-1-0.2-1.4-0.3
	s-0.8-0.3-1.2-0.5c-0.3-0.2-0.6-0.5-0.8-0.8s-0.3-0.8-0.3-1.3c0-1,0.3-1.7,1-2.3c0.7-0.5,1.6-0.8,2.7-0.8h0.7c0.3,0,0.5,0,0.8,0.1
	c0.3,0,0.5,0.1,0.8,0.1s0.5,0.1,0.7,0.2c0.3,0.1,0.5,0.3,0.4,0.6l-0.2,0.7c0,0.1-0.1,0.2-0.2,0.3h-0.4c-0.4-0.1-0.9-0.1-1.4-0.2
	c-0.5,0-0.9-0.1-1.3-0.1c-0.6,0-1.1,0.1-1.3,0.3s-0.3,0.5-0.3,0.9s0.1,0.6,0.4,0.8c0.3,0.1,0.7,0.2,1.3,0.3c0.5,0.1,0.9,0.2,1.4,0.3
	s0.8,0.3,1.2,0.5c0.3,0.2,0.6,0.5,0.8,0.9C232.3,62.3,232.4,62.8,232.4,63.4"/>
<path class="st0" d="M236.8,66c0,0.1,0,0.2-0.1,0.3c0,0.1-0.1,0.1-0.3,0.1H235c-0.3,0-0.4-0.1-0.4-0.4v-9.1c0-0.3,0.1-0.4,0.4-0.4
	h1.4c0.1,0,0.2,0,0.3,0.1c0,0.1,0.1,0.2,0.1,0.3V66z M236.9,53.9v0.5c0,0.1-0.1,0.3-0.2,0.4c-0.1,0.1-0.2,0.2-0.4,0.3
	s-0.4,0.1-0.6,0.1c-0.3,0-0.5,0-0.6-0.1c-0.2-0.1-0.3-0.2-0.4-0.3c-0.1-0.1-0.1-0.2-0.2-0.4V54c0-0.3,0.1-0.6,0.2-0.8
	c0.2-0.2,0.5-0.3,1-0.3s0.8,0.1,1,0.3C236.8,53.3,236.9,53.6,236.9,53.9L236.9,53.9z"/>
<path class="st0" d="M245.5,61.4c0-0.5,0-1-0.1-1.4s-0.2-0.7-0.3-1c-0.2-0.3-0.4-0.5-0.7-0.6s-0.6-0.2-1.1-0.2c-0.4,0-0.8,0.1-1,0.2
	c-0.2,0.1-0.5,0.3-0.6,0.6c-0.2,0.3-0.3,0.6-0.3,1c-0.1,0.4-0.1,0.9-0.1,1.4s0,1,0.1,1.4s0.2,0.7,0.3,1c0.1,0.3,0.4,0.5,0.6,0.6
	c0.2,0.1,0.6,0.2,1,0.2c0.5,0,0.8-0.1,1.1-0.2s0.5-0.3,0.7-0.6c0.2-0.3,0.3-0.6,0.3-1S245.5,62,245.5,61.4 M247.8,61.3
	c0,0.6,0,1.2-0.1,1.8s-0.3,1.2-0.6,1.7s-0.7,0.9-1.3,1.3c-0.6,0.3-1.4,0.5-2.4,0.5s-1.8-0.2-2.4-0.5c-0.6-0.3-1-0.7-1.3-1.3
	c-0.3-0.5-0.5-1.1-0.5-1.7c-0.1-0.6-0.1-1.2-0.1-1.8c0-0.5,0-1,0.1-1.6s0.3-1.1,0.6-1.6s0.7-0.9,1.3-1.3c0.6-0.3,1.3-0.5,2.3-0.5
	s1.8,0.1,2.3,0.4c0.6,0.3,1,0.7,1.3,1.2s0.5,1,0.6,1.6C247.7,60.1,247.8,60.7,247.8,61.3"/>
<path class="st0" d="M258.2,66.3c-0.1,0.1-0.2,0.1-0.3,0.1h-1.5c-0.3,0-0.4-0.1-0.4-0.4v-5.6c0-0.6-0.1-1.1-0.3-1.4
	c-0.2-0.4-0.6-0.5-1.2-0.5c-0.2,0-0.4,0-0.7,0.1s-0.5,0.2-0.8,0.3s-0.5,0.2-0.7,0.3s-0.4,0.2-0.5,0.3V66c0,0.3-0.1,0.4-0.4,0.4H250
	c-0.3,0-0.4-0.1-0.4-0.4v-9.1c0-0.3,0.1-0.4,0.4-0.4h1.4c0.3,0,0.4,0.1,0.4,0.4v0.6c0.2-0.1,0.4-0.3,0.7-0.4
	c0.3-0.1,0.5-0.3,0.8-0.4c0.3-0.1,0.6-0.2,0.9-0.3c0.3-0.1,0.6-0.1,0.9-0.1c0.7,0,1.2,0.1,1.6,0.3s0.7,0.5,0.9,0.8s0.3,0.8,0.4,1.2
	c0.1,0.5,0.1,0.9,0.1,1.5V66C258.3,66.1,258.2,66.2,258.2,66.3"/>
<path class="st0" d="M273.2,66.7h3.3V28h-3.3V66.7z"/>
<g>
	<path class="st3" d="M292.4,30.6h1.1v3.2h4v-3.2h1.1v7.7h-1.1v-3.7h-4v3.7h-1.1V30.6z"/>
	<path class="st3" d="M304,33.3c0.5,0.5,0.7,1.2,0.7,2.1s-0.2,1.7-0.6,2.2c-0.5,0.6-1.1,0.9-2.1,0.9c-0.7,0-1.3-0.2-1.8-0.7
		c-0.5-0.5-0.7-1.2-0.7-2.1c0-1,0.2-1.7,0.7-2.3c0.5-0.6,1.1-0.9,2-0.9C302.9,32.6,303.5,32.8,304,33.3z M303.5,37.1
		c0.2-0.5,0.4-1,0.4-1.6c0-0.5-0.1-1-0.2-1.3c-0.2-0.5-0.7-0.7-1.3-0.7c-0.6,0-1,0.2-1.2,0.6c-0.2,0.5-0.4,1-0.4,1.6
		c0,0.6,0.1,1.1,0.4,1.5c0.2,0.4,0.7,0.6,1.2,0.6C302.7,37.7,303.2,37.6,303.5,37.1z"/>
	<path class="st3" d="M305.9,32.7h0.9v1c0.1-0.2,0.2-0.4,0.5-0.7c0.2-0.2,0.6-0.4,1-0.4c0,0,0,0,0.1,0s0.1,0,0.2,0v1h-0.1h-0.1
		c-0.5,0-0.9,0.1-1.1,0.5c-0.2,0.4-0.4,0.6-0.4,1.1v3.2h-1L305.9,32.7L305.9,32.7z"/>
	<path class="st3" d="M309.5,30.6h1v1.1h-1V30.6z M309.5,32.8h1v5.5h-1V32.8z"/>
	<path class="st3" d="M311.5,37.6l3.3-4h-3.1v-0.9h4.4v0.7l-3.3,4h3.4v0.9h-4.8V37.6z"/>
	<path class="st3" d="M321.4,33.3c0.5,0.5,0.7,1.2,0.7,2.1s-0.2,1.7-0.6,2.2c-0.5,0.6-1.1,0.9-2.1,0.9c-0.7,0-1.3-0.2-1.8-0.7
		c-0.5-0.5-0.7-1.2-0.7-2.1c0-1,0.2-1.7,0.7-2.3c0.5-0.6,1.1-0.9,2-0.9C320.3,32.6,320.9,32.8,321.4,33.3z M320.8,37.1
		c0.2-0.5,0.4-1,0.4-1.6c0-0.5-0.1-1-0.2-1.3c-0.2-0.5-0.7-0.7-1.3-0.7c-0.6,0-1,0.2-1.2,0.6c-0.2,0.5-0.4,1-0.4,1.6
		c0,0.6,0.1,1.1,0.4,1.5c0.2,0.4,0.7,0.6,1.2,0.6C320.1,37.7,320.6,37.6,320.8,37.1z"/>
	<path class="st3" d="M323.2,32.7h0.9v0.9c0.2-0.4,0.6-0.6,0.9-0.7c0.2-0.1,0.6-0.2,1-0.2c0.9,0,1.3,0.2,1.6,0.9
		c0.1,0.2,0.2,0.7,0.2,1.3v3.7h-1v-3.5c0-0.4,0-0.6-0.1-0.9c-0.1-0.4-0.5-0.5-1-0.5c-0.2,0-0.4,0-0.6,0.1c-0.2,0.1-0.5,0.2-0.7,0.5
		c-0.1,0.2-0.2,0.4-0.4,0.6c0,0.2-0.1,0.5-0.1,0.9v2.7h-1v-5.6H323.2z"/>
	<path class="st3" d="M332.3,36.7c0.2-0.5,0.7-1,1.3-1.3l1-0.6c0.5-0.2,0.7-0.5,1-0.7c0.2-0.2,0.5-0.6,0.5-1c0-0.5-0.1-0.7-0.4-1.1
		c-0.2-0.2-0.6-0.4-1.1-0.4c-0.6,0-1.1,0.2-1.3,0.7c-0.1,0.2-0.2,0.6-0.2,1.1h-1c0-0.6,0.1-1.2,0.4-1.6c0.4-0.7,1.1-1.1,2.2-1.1
		c0.9,0,1.5,0.2,1.8,0.7c0.4,0.5,0.6,1,0.6,1.6c0,0.6-0.2,1.1-0.6,1.6c-0.2,0.2-0.7,0.6-1.3,0.9l-0.7,0.4c-0.4,0.2-0.6,0.4-0.9,0.5
		c-0.4,0.2-0.6,0.6-0.6,1h4.1v1h-5.1C331.9,37.7,332,37.2,332.3,36.7z"/>
	<path class="st3" d="M342.7,32.1c0.4,0.6,0.5,1.5,0.5,2.6c0,1-0.1,1.8-0.5,2.6c-0.5,1-1.2,1.5-2.2,1.5c-0.9,0-1.6-0.4-2.1-1.2
		c-0.4-0.6-0.6-1.6-0.6-2.7c0-0.9,0.1-1.6,0.4-2.2c0.4-1.1,1.2-1.7,2.2-1.7C341.4,30.9,342.2,31.2,342.7,32.1z M341.7,37.1
		c0.2-0.5,0.5-1.2,0.5-2.4c0-0.9-0.1-1.6-0.4-2.1c-0.2-0.5-0.6-0.9-1.2-0.9s-1,0.2-1.2,0.7c-0.2,0.5-0.4,1.3-0.4,2.3
		c0,0.7,0.1,1.3,0.2,1.8c0.2,0.7,0.7,1.1,1.3,1.1C340.9,37.7,341.3,37.5,341.7,37.1z"/>
	<path class="st3" d="M344.2,36.7c0.2-0.5,0.7-1,1.3-1.3l1-0.6c0.5-0.2,0.7-0.5,1-0.7c0.2-0.2,0.5-0.6,0.5-1c0-0.5-0.1-0.7-0.4-1.1
		c-0.2-0.2-0.6-0.4-1.1-0.4c-0.6,0-1.1,0.2-1.3,0.7c-0.1,0.2-0.2,0.6-0.2,1.1h-1c0-0.6,0.1-1.2,0.4-1.6c0.4-0.7,1.1-1.1,2.2-1.1
		c0.9,0,1.5,0.2,1.8,0.7c0.4,0.5,0.6,1,0.6,1.6c0,0.6-0.2,1.1-0.6,1.6c-0.2,0.2-0.7,0.6-1.3,0.9l-0.7,0.4c-0.4,0.2-0.6,0.4-0.9,0.5
		c-0.4,0.2-0.6,0.6-0.6,1h4.1v1h-5.1C343.9,37.7,344.1,37.2,344.2,36.7z"/>
	<path class="st3" d="M354.6,32.1c0.4,0.6,0.5,1.5,0.5,2.6c0,1-0.1,1.8-0.5,2.6c-0.5,1-1.2,1.5-2.2,1.5c-0.9,0-1.6-0.4-2.1-1.2
		c-0.4-0.6-0.6-1.6-0.6-2.7c0-0.9,0.1-1.6,0.4-2.2c0.4-1.1,1.2-1.7,2.2-1.7C353.4,30.9,354.1,31.2,354.6,32.1z M353.6,37.1
		c0.2-0.5,0.5-1.2,0.5-2.4c0-0.9-0.1-1.6-0.4-2.1c-0.2-0.5-0.6-0.9-1.2-0.9s-1,0.2-1.2,0.7c-0.2,0.5-0.4,1.3-0.4,2.3
		c0,0.7,0.1,1.3,0.2,1.8c0.2,0.7,0.7,1.1,1.3,1.1C352.9,37.7,353.3,37.5,353.6,37.1z"/>
	<path class="st3" d="M292.4,43.6h5.6v1h-4.6v2.3h4.3v0.9h-4.3v2.6h4.6v1h-5.7v-7.7H292.4z"/>
	<path class="st3" d="M300.3,45.6v3.8c0,0.2,0,0.5,0.1,0.7c0.1,0.4,0.5,0.5,1,0.5c0.6,0,1.1-0.2,1.3-0.9c0.1-0.4,0.2-0.7,0.2-1.3
		v-2.8h1v5.6h-1.1v-0.9c-0.1,0.2-0.2,0.4-0.5,0.5c-0.4,0.2-0.7,0.5-1.3,0.5c-0.7,0-1.3-0.2-1.6-0.9c-0.1-0.2-0.2-0.7-0.2-1.1v-3.8
		H300.3z"/>
	<path class="st3" d="M305.3,45.6h0.9v1c0.1-0.2,0.2-0.4,0.5-0.7c0.2-0.2,0.6-0.4,1-0.4c0,0,0,0,0.1,0c0.1,0,0.1,0,0.2,0v1h-0.1
		h-0.1c-0.5,0-0.9,0.1-1.1,0.5c-0.2,0.4-0.4,0.6-0.4,1.1v3.3h-1V45.6z"/>
	<path class="st3" d="M313,46.3c0.5,0.5,0.7,1.2,0.7,2.1s-0.2,1.7-0.6,2.2c-0.5,0.6-1.1,0.9-2.1,0.9c-0.7,0-1.3-0.2-1.8-0.7
		c-0.5-0.5-0.7-1.2-0.7-2.1c0-1,0.2-1.7,0.7-2.3c0.5-0.6,1.1-0.9,2-0.9C311.9,45.5,312.5,45.8,313,46.3z M312.4,50
		c0.2-0.5,0.4-1,0.4-1.6c0-0.5-0.1-1-0.2-1.3c-0.2-0.5-0.7-0.7-1.3-0.7c-0.6,0-1,0.2-1.2,0.6c-0.2,0.4-0.4,1-0.4,1.6
		c0,0.6,0.1,1.1,0.4,1.5c0.2,0.4,0.7,0.6,1.2,0.6C311.8,50.7,312.1,50.4,312.4,50z"/>
	<path class="st3" d="M314.8,45.6h1v0.7c0.2-0.2,0.4-0.5,0.6-0.6c0.4-0.2,0.7-0.4,1.1-0.4c0.6,0,1.2,0.2,1.6,0.7
		c0.5,0.5,0.6,1.2,0.6,2.1c0,1.2-0.4,2.1-1,2.7c-0.4,0.4-0.9,0.5-1.5,0.5c-0.4,0-0.7-0.1-1.1-0.2c-0.1-0.1-0.4-0.2-0.6-0.5v2.9h-1
		v-7.9H314.8z M318.4,50.2c0.2-0.4,0.5-1,0.5-1.7c0-0.5-0.1-0.9-0.2-1.1c-0.2-0.6-0.7-1-1.3-1s-1.1,0.4-1.3,1
		c-0.1,0.4-0.2,0.9-0.2,1.3c0,0.5,0.1,0.9,0.2,1.1c0.2,0.6,0.7,0.9,1.3,0.9C317.8,50.7,318.1,50.5,318.4,50.2z"/>
	<path class="st3" d="M324.3,45.9c0.4,0.2,0.6,0.5,0.9,0.7c0.2,0.2,0.4,0.6,0.4,1c0,0.2,0.1,0.7,0.1,1.2h-4.1c0,0.6,0.1,1,0.4,1.3
		c0.2,0.4,0.6,0.5,1.2,0.5c0.5,0,0.9-0.1,1.2-0.5c0.1-0.2,0.2-0.4,0.4-0.6h1c0,0.2-0.1,0.5-0.2,0.7c-0.1,0.2-0.2,0.5-0.5,0.6
		c-0.2,0.2-0.6,0.5-1.1,0.6c-0.2,0-0.5,0.1-0.7,0.1c-0.7,0-1.3-0.2-1.8-0.7c-0.5-0.5-0.7-1.2-0.7-2.2c0-0.9,0.2-1.6,0.7-2.2
		c0.5-0.6,1.1-0.9,2-0.9C323.6,45.5,324,45.6,324.3,45.9z M324.7,48.1c0-0.4-0.1-0.7-0.2-1c-0.2-0.5-0.7-0.7-1.3-0.7
		c-0.5,0-0.7,0.1-1.1,0.5c-0.2,0.4-0.5,0.7-0.5,1.2C321.5,48.1,324.7,48.1,324.7,48.1z"/>
	<path class="st3" d="M330,47.8c0.2,0,0.4-0.1,0.5-0.2c0-0.1,0.1-0.2,0.1-0.4c0-0.4-0.1-0.6-0.4-0.7c-0.2-0.1-0.6-0.2-1-0.2
		c-0.5,0-0.9,0.1-1.1,0.4c-0.1,0.1-0.2,0.4-0.2,0.6H327c0-0.7,0.2-1.2,0.7-1.5c0.5-0.2,1-0.4,1.5-0.4c0.6,0,1.2,0.1,1.6,0.4
		c0.4,0.2,0.6,0.6,0.6,1.2v3.3c0,0.1,0,0.1,0,0.2s0.1,0.1,0.2,0.1h0.1h0.1v0.7c-0.1,0-0.2,0.1-0.4,0.1c-0.1,0-0.1,0-0.4,0
		c-0.4,0-0.6-0.1-0.7-0.4c-0.1-0.1-0.1-0.2-0.1-0.5c-0.2,0.2-0.5,0.5-0.9,0.6c-0.4,0.1-0.7,0.2-1.2,0.2c-0.5,0-1-0.1-1.2-0.5
		c-0.2-0.4-0.5-0.7-0.5-1.2s0.1-1,0.5-1.2c0.4-0.2,0.7-0.5,1.3-0.5L330,47.8z M327.9,50.4c0.2,0.1,0.5,0.2,0.7,0.2
		c0.4,0,0.6-0.1,1-0.2c0.5-0.2,0.7-0.7,0.7-1.2v-0.7c-0.1,0.1-0.2,0.1-0.5,0.2c-0.1,0-0.4,0.1-0.5,0.1l-0.6,0.1
		c-0.4,0-0.6,0.1-0.7,0.2c-0.2,0.1-0.5,0.4-0.5,0.7C327.6,50,327.8,50.3,327.9,50.4z"/>
	<path class="st3" d="M332.9,45.6h0.9v0.9c0.2-0.4,0.6-0.6,0.9-0.7c0.2-0.1,0.6-0.2,1-0.2c0.9,0,1.3,0.2,1.6,0.9
		c0.1,0.2,0.2,0.7,0.2,1.3v3.7h-1v-3.5c0-0.4,0-0.6-0.1-0.9c-0.1-0.4-0.5-0.5-1-0.5c-0.2,0-0.4,0-0.6,0.1s-0.5,0.2-0.7,0.5
		c-0.1,0.2-0.2,0.4-0.4,0.6c0,0.2-0.1,0.5-0.1,0.9v2.9h-1v-5.9H332.9z"/>
	<path class="st3" d="M343.1,43.6v4.8c0,0.6,0.1,1,0.4,1.3c0.4,0.6,0.9,0.9,1.6,0.9c0.9,0,1.5-0.2,1.8-0.9c0.1-0.4,0.2-0.7,0.2-1.3
		v-4.8h1.1V48c0,1-0.1,1.7-0.4,2.2c-0.5,1-1.3,1.3-2.7,1.3c-1.3,0-2.2-0.5-2.7-1.3c-0.2-0.5-0.4-1.2-0.4-2.2v-4.4H343.1z"/>
	<path class="st3" d="M349.6,45.6h0.9v0.9c0.2-0.4,0.6-0.6,0.9-0.7c0.2-0.1,0.6-0.2,1-0.2c0.9,0,1.3,0.2,1.6,0.9
		c0.1,0.2,0.2,0.7,0.2,1.3v3.7h-1v-3.5c0-0.4,0-0.6-0.1-0.9c-0.1-0.4-0.5-0.5-1-0.5c-0.2,0-0.4,0-0.6,0.1c-0.2,0.1-0.5,0.2-0.7,0.5
		c-0.1,0.2-0.2,0.4-0.4,0.6c0,0.2-0.1,0.5-0.1,0.9v2.9h-1v-5.9H349.6z"/>
	<path class="st3" d="M355.6,43.6h1v1.1h-1V43.6z M355.6,45.6h1v5.6h-1V45.6z"/>
	<path class="st3" d="M362.1,46.3c0.5,0.5,0.7,1.2,0.7,2.1s-0.2,1.7-0.6,2.2c-0.5,0.6-1.1,0.9-2.1,0.9c-0.7,0-1.3-0.2-1.8-0.7
		c-0.5-0.5-0.7-1.2-0.7-2.1c0-1,0.2-1.7,0.7-2.3c0.5-0.6,1.1-0.9,2-0.9C361,45.5,361.6,45.8,362.1,46.3z M361.6,50
		c0.2-0.5,0.4-1,0.4-1.6c0-0.5-0.1-1-0.2-1.3c-0.2-0.5-0.7-0.7-1.3-0.7c-0.6,0-1,0.2-1.2,0.6c-0.2,0.4-0.4,1-0.4,1.6
		c0,0.6,0.1,1.1,0.4,1.5c0.2,0.4,0.7,0.6,1.2,0.6C360.8,50.7,361.3,50.4,361.6,50z"/>
	<path class="st3" d="M364,45.6h0.9v0.9c0.2-0.4,0.6-0.6,0.9-0.7c0.2-0.1,0.6-0.2,1-0.2c0.9,0,1.3,0.2,1.6,0.9
		c0.1,0.2,0.2,0.7,0.2,1.3v3.7h-1v-3.5c0-0.4,0-0.6-0.1-0.9c-0.1-0.4-0.5-0.5-1-0.5c-0.2,0-0.4,0-0.6,0.1s-0.5,0.2-0.7,0.5
		c-0.1,0.2-0.2,0.4-0.4,0.6c0,0.2-0.1,0.5-0.1,0.9v2.9h-1v-5.9H364z"/>
	<path class="st3" d="M373.3,43.6h5.4v1h-4.3v2.3h3.8v1h-3.8v3.5h-1.1V43.6z"/>
	<path class="st3" d="M380.5,45.6v3.8c0,0.2,0,0.5,0.1,0.7c0.1,0.4,0.5,0.5,1,0.5c0.6,0,1.1-0.2,1.3-0.9c0.1-0.4,0.2-0.7,0.2-1.3
		v-2.8h1v5.6h-0.9v-0.9c-0.1,0.2-0.2,0.4-0.5,0.5c-0.4,0.2-0.7,0.5-1.3,0.5c-0.7,0-1.3-0.2-1.6-0.9c-0.1-0.2-0.2-0.7-0.2-1.1v-3.8
		H380.5z"/>
	<path class="st3" d="M385.6,45.6h0.9v0.9c0.2-0.4,0.6-0.6,0.9-0.7c0.2-0.1,0.6-0.2,1-0.2c0.9,0,1.3,0.2,1.6,0.9
		c0.1,0.2,0.2,0.7,0.2,1.3v3.7h-1v-3.5c0-0.4,0-0.6-0.1-0.9c-0.1-0.4-0.5-0.5-1-0.5c-0.2,0-0.4,0-0.6,0.1s-0.5,0.2-0.7,0.5
		c-0.1,0.2-0.2,0.4-0.4,0.6c0,0.2-0.1,0.5-0.1,0.9v2.9h-1v-5.9H385.6z"/>
	<path class="st3" d="M394.6,45.9c0.1,0.1,0.4,0.2,0.6,0.6v-2.8h0.9v7.8h-0.9v-1c-0.2,0.4-0.5,0.6-0.7,0.7c-0.2,0.1-0.6,0.2-1,0.2
		c-0.6,0-1.2-0.2-1.6-0.7c-0.5-0.5-0.7-1.2-0.7-2.1s0.2-1.6,0.6-2.1c0.4-0.6,1-0.9,1.8-0.9C394,45.5,394.4,45.6,394.6,45.9z
		 M392.6,50c0.2,0.4,0.6,0.6,1.2,0.6c0.5,0,0.9-0.2,1.1-0.6c0.2-0.4,0.4-1,0.4-1.6c0-0.7-0.1-1.2-0.5-1.6c-0.4-0.4-0.6-0.5-1.1-0.5
		c-0.5,0-0.9,0.1-1.1,0.5c-0.2,0.4-0.5,0.9-0.5,1.6C392.2,49.2,392.3,49.7,392.6,50z"/>
	<path class="st3" d="M397.6,43.6h1v1.1h-1V43.6z M397.6,45.6h1v5.6h-1V45.6z"/>
	<path class="st3" d="M399.9,45.6h0.9v0.9c0.2-0.4,0.6-0.6,0.9-0.7c0.2-0.1,0.6-0.2,1-0.2c0.9,0,1.3,0.2,1.6,0.9
		c0.1,0.2,0.2,0.7,0.2,1.3v3.7h-1v-3.5c0-0.4,0-0.6-0.1-0.9c-0.1-0.4-0.5-0.5-1-0.5c-0.2,0-0.4,0-0.6,0.1s-0.5,0.2-0.7,0.5
		c-0.1,0.2-0.2,0.4-0.4,0.6c0,0.2-0.1,0.5-0.1,0.9v2.9h-1v-5.9H399.9z"/>
	<path class="st3" d="M409,45.9c0.1,0.1,0.4,0.2,0.5,0.5v-0.7h0.9v5.1c0,0.7-0.1,1.2-0.4,1.7c-0.4,0.7-1.1,1.1-2.2,1.1
		c-0.6,0-1.1-0.1-1.5-0.4c-0.4-0.2-0.6-0.7-0.7-1.2h1c0,0.2,0.1,0.5,0.2,0.6c0.2,0.2,0.5,0.4,1,0.4c0.7,0,1.2-0.2,1.5-0.7
		c0.1-0.2,0.2-0.9,0.1-1.6c-0.2,0.2-0.4,0.5-0.7,0.6c-0.4,0.1-0.6,0.2-1.1,0.2c-0.6,0-1.1-0.2-1.6-0.6c-0.5-0.5-0.7-1.1-0.7-2.2
		c0-1,0.2-1.7,0.7-2.2c0.5-0.5,1-0.9,1.7-0.9C408.3,45.5,408.8,45.6,409,45.9z M409.2,46.9c-0.2-0.4-0.6-0.5-1.1-0.5
		c-0.6,0-1.1,0.4-1.3,1c-0.1,0.4-0.2,0.7-0.2,1.3s0.1,1.1,0.4,1.5c0.2,0.4,0.6,0.5,1,0.5c0.7,0,1.1-0.4,1.5-1
		c0.1-0.4,0.2-0.7,0.2-1.2C409.6,47.7,409.5,47.2,409.2,46.9z"/>
	<path class="st3" d="M292.6,56.9c0.2-0.4,0.6-0.5,1.2-0.5c0,0,0.1,0,0.2,0s0.1,0,0.2,0v0.9c-0.1,0-0.1,0-0.2,0H294
		c-0.2,0-0.5,0.1-0.5,0.2s-0.1,0.5-0.1,1.1h1v0.7h-1v4.9h-1v-4.9h-0.7v-0.7h0.7v-0.9C292.4,57.4,292.5,57.1,292.6,56.9z"/>
	<path class="st3" d="M299.2,59.2c0.5,0.5,0.7,1.2,0.7,2.1s-0.2,1.7-0.6,2.2c-0.5,0.6-1.1,0.9-2.1,0.9c-0.7,0-1.3-0.2-1.8-0.7
		c-0.5-0.5-0.7-1.2-0.7-2.1c0-1,0.2-1.7,0.7-2.3c0.5-0.6,1.1-0.9,2-0.9C298.1,58.5,298.7,58.7,299.2,59.2z M298.6,62.9
		c0.2-0.5,0.4-1,0.4-1.6c0-0.5-0.1-1-0.2-1.3c-0.2-0.5-0.7-0.7-1.3-0.7s-1,0.2-1.2,0.6c-0.2,0.4-0.4,1-0.4,1.6
		c0,0.6,0.1,1.1,0.4,1.5c0.2,0.4,0.7,0.6,1.2,0.6C298,63.6,298.5,63.3,298.6,62.9z"/>
	<path class="st3" d="M301.2,58.6h0.9v1c0.1-0.2,0.2-0.4,0.5-0.7c0.2-0.2,0.6-0.4,1-0.4c0,0,0,0,0.1,0s0.1,0,0.2,0v1h-0.1h-0.1
		c-0.5,0-0.9,0.1-1.1,0.5c-0.2,0.4-0.4,0.6-0.4,1.1v3.3h-1L301.2,58.6L301.2,58.6z"/>
	<path class="st3" d="M308,56.5h3.5c0.6,0,1.1,0.1,1.5,0.2c0.7,0.4,1.1,1,1.1,1.8c0,0.5-0.1,0.9-0.2,1.1c-0.1,0.2-0.5,0.5-0.9,0.7
		c0.2,0.1,0.5,0.2,0.7,0.5c0.1,0.2,0.2,0.5,0.2,1v1c0,0.2,0,0.5,0.1,0.6c0.1,0.2,0.1,0.4,0.4,0.5v0.1h-1.3c0-0.1-0.1-0.1-0.1-0.2
		c0-0.1,0-0.4,0-0.6l-0.1-1.3c0-0.5-0.2-0.9-0.5-1c-0.2-0.1-0.5-0.1-0.9-0.1H309v3.3h-1.1v-7.6H308z M311.4,60
		c0.5,0,0.9-0.1,1.1-0.2c0.2-0.1,0.4-0.6,0.4-1.1c0-0.6-0.2-1-0.6-1.1c-0.2-0.1-0.5-0.1-0.9-0.1H309v2.7h2.4V60z"/>
	<path class="st3" d="M319,58.7c0.4,0.2,0.6,0.5,0.9,0.7c0.2,0.2,0.4,0.6,0.4,1c0,0.2,0.1,0.7,0.1,1.2h-4.1c0,0.6,0.1,1,0.4,1.3
		c0.2,0.4,0.6,0.5,1.2,0.5c0.5,0,0.9-0.1,1.2-0.5c0.1-0.2,0.2-0.4,0.4-0.6h1c0,0.2-0.1,0.5-0.2,0.7c-0.1,0.2-0.2,0.5-0.5,0.6
		c-0.2,0.2-0.6,0.5-1.1,0.6c-0.2,0-0.5,0.1-0.7,0.1c-0.7,0-1.3-0.2-1.8-0.7c-0.5-0.5-0.7-1.2-0.7-2.2c0-0.9,0.2-1.6,0.7-2.2
		c0.5-0.6,1.1-0.9,2-0.9C318.2,58.5,318.6,58.6,319,58.7z M319.3,61c0-0.4-0.1-0.7-0.2-1c-0.2-0.5-0.7-0.7-1.3-0.7
		c-0.5,0-0.7,0.1-1.1,0.5c-0.2,0.4-0.5,0.7-0.5,1.2C316.2,61,319.3,61,319.3,61z"/>
	<path class="st3" d="M322,62.5c0,0.4,0.1,0.6,0.2,0.7c0.2,0.2,0.6,0.5,1.2,0.5c0.4,0,0.7-0.1,1-0.2c0.2-0.1,0.4-0.4,0.4-0.7
		c0-0.2-0.1-0.4-0.4-0.6c-0.1-0.1-0.4-0.1-0.9-0.2l-0.7-0.2c-0.5-0.1-0.9-0.2-1.1-0.4c-0.4-0.2-0.6-0.6-0.6-1.1c0-0.5,0.2-1,0.6-1.3
		c0.4-0.4,0.9-0.5,1.6-0.5c0.9,0,1.5,0.2,1.8,0.7c0.2,0.4,0.4,0.6,0.4,1h-0.9c0-0.2-0.1-0.4-0.2-0.6c-0.2-0.2-0.6-0.4-1.1-0.4
		c-0.4,0-0.6,0.1-0.9,0.2c-0.2,0.1-0.2,0.4-0.2,0.5c0,0.2,0.1,0.5,0.4,0.6c0.1,0.1,0.4,0.1,0.6,0.2l0.6,0.1c0.7,0.1,1.1,0.4,1.3,0.5
		c0.4,0.2,0.6,0.6,0.6,1.1s-0.2,1-0.6,1.3c-0.4,0.4-1,0.5-1.7,0.5c-0.9,0-1.5-0.2-1.8-0.6c-0.4-0.4-0.5-0.9-0.6-1.5h1V62.5z"/>
	<path class="st3" d="M330.3,58.7c0.4,0.2,0.6,0.5,0.9,0.7c0.2,0.2,0.4,0.6,0.4,1c0,0.2,0.1,0.7,0.1,1.2h-4.1c0,0.6,0.1,1,0.4,1.3
		c0.2,0.4,0.6,0.5,1.2,0.5c0.5,0,0.9-0.1,1.2-0.5c0.1-0.2,0.2-0.4,0.4-0.6h1c0,0.2-0.1,0.5-0.2,0.7c-0.1,0.2-0.2,0.5-0.5,0.6
		c-0.2,0.2-0.6,0.5-1.1,0.6c-0.2,0-0.5,0.1-0.7,0.1c-0.7,0-1.3-0.2-1.8-0.7c-0.5-0.5-0.7-1.2-0.7-2.2c0-0.9,0.2-1.6,0.7-2.2
		c0.5-0.6,1.1-0.9,2-0.9C329.6,58.5,330,58.6,330.3,58.7z M330.7,61c0-0.4-0.1-0.7-0.2-1c-0.2-0.5-0.7-0.7-1.3-0.7
		c-0.5,0-0.7,0.1-1.1,0.5c-0.2,0.4-0.5,0.7-0.5,1.2C327.5,61,330.7,61,330.7,61z"/>
	<path class="st3" d="M335.9,60.8c0.2,0,0.4-0.1,0.5-0.2c0-0.1,0.1-0.2,0.1-0.4c0-0.4-0.1-0.6-0.4-0.7c-0.2-0.1-0.6-0.2-1-0.2
		c-0.5,0-0.9,0.1-1.1,0.4c-0.1,0.1-0.2,0.4-0.2,0.6H333c0-0.7,0.2-1.2,0.7-1.5c0.5-0.2,1-0.4,1.5-0.4c0.6,0,1.2,0.1,1.6,0.4
		c0.4,0.2,0.6,0.6,0.6,1.2v3.3c0,0.1,0,0.1,0,0.2s0.1,0.1,0.2,0.1h0.1h0.1v0.7c-0.1,0-0.2,0.1-0.4,0.1c-0.1,0-0.1,0-0.4,0
		c-0.4,0-0.6-0.1-0.7-0.4c-0.1-0.1-0.1-0.2-0.1-0.5c-0.2,0.2-0.5,0.5-0.9,0.6s-0.7,0.2-1.2,0.2c-0.5,0-1-0.1-1.2-0.5
		c-0.2-0.4-0.5-0.7-0.5-1.2s0.1-1,0.5-1.2c0.4-0.2,0.7-0.5,1.3-0.5L335.9,60.8z M333.9,63.3c0.2,0.1,0.5,0.2,0.7,0.2
		c0.4,0,0.6-0.1,1-0.2c0.5-0.2,0.7-0.7,0.7-1.2v-0.7c-0.1,0.1-0.2,0.1-0.5,0.2c-0.1,0-0.4,0.1-0.5,0.1l-0.6,0.1
		c-0.4,0-0.6,0.1-0.7,0.2c-0.2,0.1-0.5,0.4-0.5,0.7C333.6,63,333.7,63.2,333.9,63.3z"/>
	<path class="st3" d="M338.9,58.6h0.9v1c0.1-0.2,0.2-0.4,0.5-0.7c0.2-0.2,0.6-0.4,1-0.4c0,0,0,0,0.1,0s0.1,0,0.2,0v1h-0.1h-0.1
		c-0.5,0-0.9,0.1-1.1,0.5c-0.2,0.4-0.4,0.6-0.4,1.1v3.3h-1L338.9,58.6L338.9,58.6z"/>
	<path class="st3" d="M346.2,58.9c0.4,0.4,0.6,0.9,0.7,1.6h-1c0-0.4-0.2-0.6-0.4-0.9c-0.2-0.2-0.5-0.4-1-0.4c-0.6,0-1,0.2-1.3,0.9
		c-0.1,0.4-0.2,0.9-0.2,1.5c0,0.6,0.1,1.1,0.4,1.5c0.2,0.4,0.6,0.6,1.1,0.6c0.4,0,0.7-0.1,1-0.4c0.2-0.2,0.4-0.6,0.5-1h1
		c-0.1,0.7-0.4,1.3-0.7,1.6c-0.4,0.2-1,0.5-1.6,0.5c-0.7,0-1.3-0.2-1.7-0.9c-0.5-0.5-0.6-1.2-0.6-2.1c0-1,0.2-1.7,0.7-2.3
		c0.5-0.6,1.1-0.9,1.8-0.9C345.2,58.5,345.8,58.6,346.2,58.9z"/>
	<path class="st3" d="M347.8,56.5h1v2.9c0.2-0.2,0.4-0.5,0.6-0.6c0.2-0.2,0.7-0.2,1.1-0.2c0.9,0,1.3,0.2,1.7,0.9
		c0.1,0.4,0.2,0.7,0.2,1.3v3.7h-1v-3.5c0-0.4,0-0.7-0.1-0.9c-0.1-0.4-0.5-0.5-1-0.5c-0.4,0-0.7,0.1-1.1,0.4
		c-0.4,0.2-0.5,0.7-0.5,1.6v2.9h-1L347.8,56.5L347.8,56.5z"/>
	<path class="st3" d="M357.7,58.9c-0.1-0.2-0.1-0.5-0.1-0.7c0-0.5,0.1-0.9,0.5-1.2c0.4-0.4,0.7-0.5,1.3-0.5c0.5,0,1,0.1,1.2,0.5
		c0.2,0.4,0.5,0.6,0.5,1.1s-0.1,1-0.5,1.3c-0.1,0.2-0.5,0.5-0.9,0.7l1.3,1.7c0.1-0.2,0.1-0.5,0.2-0.6c0.1-0.1,0.1-0.4,0.1-0.6h0.9
		c0,0.5-0.1,1-0.4,1.5c-0.1,0.5-0.2,0.6-0.2,0.5l1.3,1.7h-1.2l-0.7-0.9c-0.2,0.4-0.5,0.5-0.7,0.7c-0.4,0.2-0.9,0.4-1.5,0.4
		c-0.9,0-1.3-0.2-1.7-0.6c-0.4-0.4-0.5-1-0.5-1.5c0-0.6,0.1-1.1,0.5-1.5c0.2-0.2,0.6-0.5,1.2-0.9C358,59.6,357.8,59.2,357.7,58.9z
		 M360,63.3c0.2-0.1,0.5-0.4,0.6-0.6l-1.7-2.1c-0.5,0.4-0.9,0.6-1,0.7c-0.2,0.2-0.4,0.6-0.4,1s0.1,0.7,0.5,1c0.2,0.2,0.6,0.4,1,0.4
		C359.4,63.6,359.6,63.5,360,63.3z M359.9,58.9c0.2-0.2,0.4-0.5,0.4-0.7s-0.1-0.4-0.2-0.6c-0.1-0.2-0.4-0.2-0.6-0.2
		c-0.4,0-0.6,0.1-0.9,0.4c-0.1,0.1-0.1,0.2-0.1,0.5c0,0.2,0,0.4,0.1,0.6s0.4,0.5,0.6,0.7C359.5,59.3,359.7,59.1,359.9,58.9z"/>
	<path class="st3" d="M367.3,56.5h1.1v7.7h-1.1V56.5z"/>
	<path class="st3" d="M370,58.6h0.9v0.9c0.2-0.4,0.6-0.6,0.9-0.7c0.2-0.1,0.6-0.2,1-0.2c0.9,0,1.3,0.2,1.6,0.9
		c0.1,0.2,0.2,0.7,0.2,1.3v3.7h-0.9v-3.5c0-0.4,0-0.6-0.1-0.9c-0.1-0.4-0.5-0.5-1-0.5c-0.2,0-0.4,0-0.6,0.1
		c-0.2,0.1-0.5,0.2-0.7,0.5c-0.1,0.2-0.2,0.4-0.4,0.6c0,0.2-0.1,0.5-0.1,0.9v2.9H370V58.6z"/>
	<path class="st3" d="M376,58.6h0.9v0.9c0.2-0.4,0.6-0.6,0.9-0.7c0.2-0.1,0.6-0.2,1-0.2c0.9,0,1.3,0.2,1.6,0.9
		c0.1,0.2,0.2,0.7,0.2,1.3v3.7h-1v-3.5c0-0.4,0-0.6-0.1-0.9c-0.1-0.4-0.5-0.5-1-0.5c-0.2,0-0.4,0-0.6,0.1c-0.2,0.1-0.5,0.2-0.7,0.5
		c-0.1,0.2-0.2,0.4-0.4,0.6c0,0.2-0.1,0.5-0.1,0.9v2.9h-1v-5.9H376z"/>
	<path class="st3" d="M386.1,59.2c0.5,0.5,0.7,1.2,0.7,2.1s-0.2,1.7-0.6,2.2c-0.5,0.6-1.1,0.9-2.1,0.9c-0.7,0-1.3-0.2-1.8-0.7
		c-0.5-0.5-0.7-1.2-0.7-2.1c0-1,0.2-1.7,0.7-2.3c0.5-0.6,1.1-0.9,2-0.9C384.9,58.5,385.5,58.7,386.1,59.2z M385.5,62.9
		c0.2-0.5,0.4-1,0.4-1.6c0-0.5-0.1-1-0.2-1.3c-0.2-0.5-0.7-0.7-1.3-0.7s-1,0.2-1.2,0.6c-0.2,0.4-0.4,1-0.4,1.6
		c0,0.6,0.1,1.1,0.4,1.5c0.2,0.4,0.7,0.6,1.2,0.6C384.8,63.6,385.2,63.3,385.5,62.9z"/>
	<path class="st3" d="M388.4,58.6l1.5,4.6l1.6-4.6h1l-2.1,5.6h-1l-2.1-5.6H388.4z"/>
	<path class="st3" d="M396.3,60.8c0.2,0,0.4-0.1,0.5-0.2c0-0.1,0.1-0.2,0.1-0.4c0-0.4-0.1-0.6-0.4-0.7c-0.2-0.1-0.6-0.2-1-0.2
		c-0.5,0-0.9,0.1-1.1,0.4c-0.1,0.1-0.2,0.4-0.2,0.6h-0.9c0-0.7,0.2-1.2,0.7-1.5c0.5-0.2,1-0.4,1.5-0.4c0.6,0,1.2,0.1,1.6,0.4
		c0.4,0.2,0.6,0.6,0.6,1.2v3.3c0,0.1,0,0.1,0,0.2s0.1,0.1,0.2,0.1h0.1h0.1v0.7c-0.1,0-0.2,0.1-0.4,0.1c-0.1,0-0.1,0-0.4,0
		c-0.4,0-0.6-0.1-0.7-0.4c-0.1-0.1-0.1-0.2-0.1-0.5c-0.2,0.2-0.5,0.5-0.9,0.6s-0.7,0.2-1.2,0.2c-0.5,0-1-0.1-1.2-0.5
		c-0.2-0.4-0.5-0.7-0.5-1.2s0.1-1,0.5-1.2c0.4-0.2,0.7-0.5,1.3-0.5L396.3,60.8z M394.4,63.3c0.2,0.1,0.5,0.2,0.7,0.2
		c0.4,0,0.6-0.1,1-0.2c0.5-0.2,0.7-0.7,0.7-1.2v-0.7c-0.1,0.1-0.2,0.1-0.5,0.2c-0.1,0-0.4,0.1-0.5,0.1l-0.6,0.1
		c-0.4,0-0.6,0.1-0.7,0.2c-0.2,0.1-0.5,0.4-0.5,0.7C394,63,394.1,63.2,394.4,63.3z"/>
	<path class="st3" d="M399.5,57h1v1.6h0.9v0.7h-0.9V63c0,0.2,0.1,0.4,0.2,0.4s0.2,0,0.4,0h0.1c0,0,0.1,0,0.2,0v0.7
		c-0.1,0-0.2,0-0.4,0.1c-0.1,0-0.2,0-0.4,0c-0.5,0-0.7-0.1-0.9-0.4c-0.1-0.2-0.2-0.5-0.2-0.9v-3.8h-0.7v-0.7h0.7V57H399.5z"/>
	<path class="st3" d="M402.3,56.5h1v1.1h-1V56.5z M402.3,58.6h1v5.6h-1V58.6z"/>
	<path class="st3" d="M408.8,59.2c0.5,0.5,0.7,1.2,0.7,2.1s-0.2,1.7-0.6,2.2c-0.5,0.6-1.1,0.9-2.1,0.9c-0.7,0-1.3-0.2-1.8-0.7
		c-0.5-0.5-0.7-1.2-0.7-2.1c0-1,0.2-1.7,0.7-2.3c0.5-0.6,1.1-0.9,2-0.9C407.7,58.5,408.3,58.7,408.8,59.2z M408.2,62.9
		c0.2-0.5,0.4-1,0.4-1.6c0-0.5-0.1-1-0.2-1.3c-0.2-0.5-0.7-0.7-1.3-0.7c-0.6,0-1,0.2-1.2,0.6c-0.2,0.4-0.4,1-0.4,1.6
		c0,0.6,0.1,1.1,0.4,1.5c0.2,0.4,0.7,0.6,1.2,0.6C407.6,63.6,407.9,63.3,408.2,62.9z"/>
	<path class="st3" d="M410.7,58.6h0.9v0.9c0.2-0.4,0.6-0.6,0.9-0.7c0.2-0.1,0.6-0.2,1-0.2c0.9,0,1.3,0.2,1.6,0.9
		c0.1,0.2,0.2,0.7,0.2,1.3v3.7h-1v-3.5c0-0.4,0-0.6-0.1-0.9c-0.1-0.4-0.5-0.5-1-0.5c-0.2,0-0.4,0-0.6,0.1c-0.2,0.1-0.5,0.2-0.7,0.5
		c-0.1,0.2-0.2,0.4-0.4,0.6c0,0.2-0.1,0.5-0.1,0.9v2.9h-1v-5.9H410.7z"/>
</g>
</svg>
