<?xml version="1.0" encoding="utf-8"?>
<!-- Generator: Adobe Illustrator 26.1.0, SVG Export Plug-In . SVG Version: 6.00 Build 0)  -->
<svg version="1.1"
	 id="svg27" inkscape:version="1.0.1 (3bc2e813f5, 2020-09-07)" sodipodi:docname="logo-polifonia.svg" xmlns:cc="http://creativecommons.org/ns#" xmlns:dc="http://purl.org/dc/elements/1.1/" xmlns:inkscape="http://www.inkscape.org/namespaces/inkscape" xmlns:rdf="http://www.w3.org/1999/02/22-rdf-syntax-ns#" xmlns:sodipodi="http://sodipodi.sourceforge.net/DTD/sodipodi-0.dtd" xmlns:svg="http://www.w3.org/2000/svg"
	 xmlns="http://www.w3.org/2000/svg" xmlns:xlink="http://www.w3.org/1999/xlink" x="0px" y="0px" viewBox="0 0 204.5 31.5"
	 style="enable-background:new 0 0 204.5 31.5;" xml:space="preserve">
<style type="text/css">
	.st0{fill:#FFFFFF;}
</style>
<sodipodi:namedview  bordercolor="#666666" borderopacity="1" gridtolerance="10" guidetolerance="10" id="namedview29" inkscape:current-layer="svg27" inkscape:cx="76.246748" inkscape:cy="28.287758" inkscape:document-rotation="0" inkscape:pageopacity="0" inkscape:pageshadow="2" inkscape:window-height="1027" inkscape:window-maximized="1" inkscape:window-width="1920" inkscape:window-x="-8" inkscape:window-y="22" inkscape:zoom="2.8782151" objecttolerance="10" pagecolor="#ffffff" showgrid="false">
	</sodipodi:namedview>
<g>
	<g id="Raggruppa_1864" transform="translate(-5026.053 -4055.891)">
		<path id="Tracciato_111" class="st0" d="M5048.9,4065.6h-5.3v13.6h2.3v-5.4h2.9c2.9,0,4.7-1.6,4.7-4.2
			C5053.5,4067.2,5051.7,4065.6,5048.9,4065.6z M5045.9,4067.5h2.8c1.6,0,2.5,0.8,2.5,2.2s-0.9,2.2-2.5,2.2h-2.8V4067.5z"/>
		<path id="Tracciato_112" class="st0" d="M5098.9,4069.1c-1.1-0.1-2.2,0.4-2.9,1.4c0-0.4,0-0.9,0-1v-0.1h-2.1v0.1
			c0,0.8,0,1.6,0,2.5v7.5h2.2v-5.4c0-1.4,0.4-3,2.3-3c1.2,0,1.8,0.7,1.8,2.2v6.2h2.2v-6.4C5102.3,4070.5,5101,4069.1,5098.9,4069.1z
			"/>
		<g id="Raggruppa_185" transform="translate(5343.332 4110.733)">
			<path id="Tracciato_113" class="st0" d="M-283.9-41.7L-283.9-41.7c-2.9,0-5.2,2.4-5.2,5.3c0,2.8,2.3,5.2,5.2,5.2l0,0
				c2.9,0,5.3-2.3,5.3-5.2C-278.6-39.4-280.9-41.7-283.9-41.7L-283.9-41.7z M-283.9-33.4c-1.7,0-3.1-1.4-3.1-3.1
				c0-1.7,1.4-3.1,3.1-3.1s3.1,1.4,3.1,3.1C-280.8-34.8-282.2-33.4-283.9-33.4z"/>
			<path id="Tracciato_114" class="st0" d="M-256.7-41.7L-256.7-41.7c-2.9,0-5.2,2.4-5.2,5.3c0,2.8,2.3,5.2,5.2,5.2l0,0
				c2.9,0,5.3-2.3,5.3-5.2C-251.4-39.4-253.7-41.7-256.7-41.7L-256.7-41.7z M-256.7-33.4c-1.7,0-3.1-1.4-3.1-3.1
				c0-1.7,1.4-3.1,3.1-3.1c1.7,0,3.1,1.4,3.1,3.1C-253.6-34.8-255-33.4-256.7-33.4z"/>
			<path id="Tracciato_115" class="st0" d="M-226.1-31.7c-0.1-0.7-0.1-1.5-0.1-2.2v-4.6c0-2.2-1.3-3.4-3.9-3.4l0,0
				c-3.2,0-3.9,1.9-4,3.1v0.1h2.1v-0.1c0.2-0.8,0.4-1.4,1.8-1.4c1.7,0,1.8,0.9,1.8,1.7v0.7h-1.5c-3.1,0-4.8,1.1-4.8,3.4
				c0,0.8,0.3,1.6,0.8,2.2c0.7,0.7,1.7,1,2.7,1c1.3,0,2.3-0.4,2.8-1.1c0,0.3,0,0.6,0.1,0.8v0.1h2.1L-226.1-31.7z M-230.7-33
				c-1,0-1.7-0.6-1.7-1.5c0-1.2,0.9-1.7,2.7-1.7h1.4v0.1C-228.4-34.2-228.7-33-230.7-33L-230.7-33z"/>
		</g>
		<rect id="Rettangolo_165" x="5066.7" y="4064.9" class="st0" width="2.2" height="14.4"/>
		<path id="Tracciato_116" class="st0" d="M5080.9,4064.9c-0.4-0.1-0.8-0.1-1.2-0.1c-2,0-3,1.3-3,3.6v0.9h-1.6v1.8h1.6v8.3h2.2v-8.3
			h1.9v-1.8h-1.9v-0.9c0-1.1,0.2-1.8,1.2-1.8c0.2,0,0.5,0,0.8,0.1h0.2L5080.9,4064.9L5080.9,4064.9z"/>
		<g id="Raggruppa_187" transform="translate(5450.133 4102.896)">
			<g id="Raggruppa_186" transform="translate(0 8.518)">
				<rect id="Rettangolo_166" x="-345.3" y="-42.2" class="st0" width="2.2" height="10.1"/>
			</g>
			<rect id="Rettangolo_167" x="-345.3" y="-37.7" class="st0" width="2.2" height="2.2"/>
		</g>
		<g id="Raggruppa_189" transform="translate(5379.686 4102.896)">
			<g id="Raggruppa_188" transform="translate(0 8.518)">
				<rect id="Rettangolo_168" x="-308.3" y="-42.2" class="st0" width="2.2" height="10.1"/>
			</g>
			<rect id="Rettangolo_169" x="-308.3" y="-37.7" class="st0" width="2.2" height="2.2"/>
		</g>
	</g>
	<g id="Raggruppa_1866" transform="translate(542.851 1230.594)">
		<path id="Tracciato_225" class="st0" d="M-541.8-1212.2v-0.4c0.9,0,1.6-0.7,1.6-1.6s-0.7-1.6-1.6-1.6v-0.4c1.1,0,2,0.9,2,2
			C-539.8-1213.2-540.7-1212.2-541.8-1212.2z"/>
		<path id="Tracciato_226" class="st0" d="M-533-1214.3c0-2.3-0.9-4.5-2.5-6.1c0.1-0.1,0.2-0.2,0.3-0.3c1.7,1.7,2.6,4,2.6,6.4
			c0,1.1-0.2,2.2-0.6,3.3c-0.1-0.1-0.2-0.3-0.3-0.4C-533.2-1212.3-533-1213.3-533-1214.3z M-533.7-1210.9c-1.4,3.3-4.5,5.4-8.1,5.4
			v0.4c3.6,0,7-2.1,8.4-5.5C-533.5-1210.6-533.6-1210.8-533.7-1210.9z M-535.5-1221c-1.7-1.6-4-2.5-6.3-2.5v0.4c2.2,0,4.4,0.9,6,2.4
			C-535.7-1220.8-535.6-1220.9-535.5-1221L-535.5-1221z"/>
		<path id="Tracciato_227" class="st0" d="M-541.8-1219.5v-0.4c3.1,0,5.6,2.5,5.6,5.6c0,1.2-0.4,2.4-1.1,3.4c0-0.1-0.1-0.3-0.2-0.5
			c0.6-0.9,0.9-1.8,0.9-2.9C-536.6-1217.1-539-1219.5-541.8-1219.5z M-537.8-1210.9c-1,1.2-2.5,1.9-4,1.9v0.4c1.6,0,3.1-0.7,4.2-1.8
			C-537.7-1210.7-537.8-1210.8-537.8-1210.9L-537.8-1210.9z"/>
		<path id="Tracciato_228" class="st0" d="M-529.2-1212.2c-1.1,0-2-0.9-2-2s0.9-2,2-2v0.4c-0.9,0-1.6,0.7-1.6,1.6s0.7,1.6,1.6,1.6
			V-1212.2z"/>
		<path id="Tracciato_229" class="st0" d="M-535.8-1207.9c-1.7-1.7-2.6-4-2.6-6.4c0-1.1,0.2-2.2,0.6-3.3c0.1,0.1,0.2,0.3,0.3,0.4
			c-0.3,0.9-0.5,1.9-0.5,2.9c0,2.3,0.9,4.5,2.5,6.1C-535.6-1208.1-535.7-1208-535.8-1207.9z M-535.5-1207.5c1.7,1.6,4,2.5,6.3,2.5
			v-0.4c-2.2,0-4.4-0.9-6-2.4C-535.3-1207.7-535.4-1207.6-535.5-1207.5L-535.5-1207.5z M-537.6-1218c0.1,0.1,0.2,0.2,0.3,0.4
			c1.4-3.3,4.5-5.4,8.1-5.4v-0.4C-532.9-1223.5-536.2-1221.4-537.6-1218L-537.6-1218z"/>
		<path id="Tracciato_230" class="st0" d="M-529.2-1209.1v0.4c-3.1,0-5.6-2.5-5.6-5.6c0-1.2,0.4-2.4,1.1-3.4c0,0.1,0.1,0.3,0.2,0.5
			c-0.6,0.9-0.9,1.8-0.9,2.9C-534.4-1211.4-532.1-1209.1-529.2-1209.1z M-533.4-1218c0,0.1,0.1,0.3,0.2,0.5c1-1.2,2.5-1.9,4-1.9
			v-0.4C-530.8-1219.9-532.3-1219.2-533.4-1218L-533.4-1218z"/>
	</g>
</g>
<g>
	<path class="st0" d="M96.2,23.4V12.6h4c0.7,0,1.3,0.1,1.7,0.2c0.5,0.2,0.8,0.4,1.1,0.7c0.3,0.3,0.5,0.6,0.6,1
		c0.1,0.4,0.2,0.8,0.2,1.2c0,0.6-0.1,1.1-0.4,1.5c-0.2,0.4-0.6,0.7-1,0.9c-0.4,0.2-0.8,0.4-1.3,0.5c-0.5,0.1-1,0.1-1.5,0.1h-2.3v4.8
		H96.2z M99.6,17.7c0.5,0,0.9,0,1.3-0.1c0.4-0.1,0.7-0.2,1-0.3c0.3-0.2,0.5-0.4,0.6-0.7c0.1-0.3,0.2-0.7,0.2-1.1
		c0-0.7-0.2-1.2-0.7-1.6c-0.4-0.4-1.2-0.5-2.1-0.5h-2.7v4.3H99.6z"/>
	<path class="st0" d="M108.5,23.6c-0.5,0-1-0.1-1.4-0.3c-0.4-0.2-0.8-0.4-1.1-0.8c-0.3-0.3-0.6-0.8-0.8-1.3
		c-0.2-0.5-0.3-1.1-0.3-1.8c0-0.6,0.1-1.1,0.2-1.6c0.2-0.5,0.4-0.9,0.7-1.3c0.3-0.4,0.7-0.7,1.1-0.9c0.5-0.2,1-0.3,1.6-0.3
		c0.6,0,1.1,0.1,1.6,0.3c0.5,0.2,0.8,0.5,1.1,0.9c0.3,0.4,0.5,0.8,0.7,1.3c0.1,0.5,0.2,1,0.2,1.6c0,0.6-0.1,1.2-0.3,1.7
		c-0.2,0.5-0.4,0.9-0.7,1.3c-0.3,0.4-0.7,0.6-1.1,0.8C109.5,23.5,109,23.6,108.5,23.6z M111.2,19.5c0-0.5-0.1-0.9-0.2-1.3
		c-0.1-0.4-0.3-0.8-0.5-1.1c-0.2-0.3-0.5-0.5-0.8-0.7c-0.3-0.2-0.7-0.3-1.2-0.3c-0.5,0-0.9,0.1-1.2,0.3c-0.3,0.2-0.6,0.4-0.8,0.7
		c-0.2,0.3-0.4,0.7-0.5,1.1c-0.1,0.4-0.2,0.8-0.2,1.2c0,0.5,0.1,0.9,0.2,1.3c0.1,0.4,0.3,0.8,0.5,1.1c0.2,0.3,0.5,0.5,0.8,0.7
		c0.3,0.2,0.7,0.2,1.1,0.2c0.5,0,0.9-0.1,1.2-0.3c0.3-0.2,0.6-0.4,0.8-0.7c0.2-0.3,0.4-0.7,0.5-1.1
		C111.1,20.3,111.2,19.9,111.2,19.5z"/>
	<path class="st0" d="M114.7,23.4h-0.9v-7.8h0.9v1.5h0c0.3-0.6,0.6-1.1,1-1.3c0.4-0.2,0.9-0.4,1.6-0.4v1c-0.5,0-0.9,0.1-1.3,0.2
		c-0.3,0.2-0.6,0.4-0.8,0.7c-0.2,0.3-0.3,0.6-0.4,1c-0.1,0.4-0.1,0.8-0.1,1.2V23.4z"/>
	<path class="st0" d="M121.6,23.5c-0.1,0-0.3,0.1-0.4,0.1c-0.2,0.1-0.4,0.1-0.6,0.1c-0.5,0-0.8-0.1-1-0.3c-0.2-0.2-0.4-0.6-0.4-1.2
		v-5.7H118v-0.8h1.1v-2.2h0.9v2.2h1.5v0.8H120v5.4c0,0.2,0,0.4,0,0.5c0,0.1,0,0.3,0.1,0.3c0.1,0.1,0.1,0.2,0.2,0.2
		c0.1,0,0.3,0.1,0.4,0.1c0.1,0,0.2,0,0.4,0c0.1,0,0.2,0,0.4-0.1V23.5z"/>
	<path class="st0" d="M126.6,18.9c0.2,0,0.4-0.1,0.6-0.1c0.2,0,0.4-0.1,0.6-0.2c0.2-0.1,0.2-0.2,0.3-0.4c0-0.2,0.1-0.3,0.1-0.5
		c0-0.5-0.1-0.8-0.4-1.1c-0.3-0.3-0.8-0.4-1.5-0.4c-0.3,0-0.6,0-0.9,0.1c-0.3,0.1-0.5,0.2-0.7,0.3c-0.2,0.1-0.4,0.3-0.5,0.5
		c-0.1,0.2-0.2,0.5-0.2,0.9H123c0-0.5,0.1-0.9,0.3-1.2c0.2-0.3,0.4-0.6,0.7-0.8c0.3-0.2,0.6-0.4,1-0.5c0.4-0.1,0.8-0.1,1.2-0.1
		c0.4,0,0.8,0,1.1,0.1c0.3,0.1,0.6,0.2,0.9,0.4c0.3,0.2,0.5,0.4,0.6,0.7c0.1,0.3,0.2,0.7,0.2,1.1v4.3c0,0.4,0.1,0.6,0.2,0.7
		c0.1,0.1,0.4,0.1,0.8-0.1v0.7c-0.1,0-0.2,0.1-0.3,0.1c-0.1,0-0.3,0.1-0.4,0.1c-0.1,0-0.3,0-0.4,0c-0.2,0-0.3-0.1-0.4-0.1
		c-0.1-0.1-0.2-0.2-0.2-0.3c-0.1-0.1-0.1-0.2-0.1-0.3c0-0.1,0-0.3,0-0.4c-0.4,0.4-0.8,0.7-1.3,1c-0.5,0.2-1,0.3-1.6,0.3
		c-0.3,0-0.7,0-1-0.1c-0.3-0.1-0.6-0.2-0.8-0.4c-0.2-0.2-0.4-0.4-0.6-0.7c-0.1-0.3-0.2-0.6-0.2-1c0-1.3,0.9-2.1,2.7-2.4L126.6,18.9z
		 M128.1,19.3c-0.4,0.2-0.8,0.3-1.2,0.3c-0.4,0.1-0.8,0.1-1.2,0.1c-0.7,0.1-1.2,0.2-1.6,0.5c-0.4,0.3-0.6,0.7-0.6,1.2
		c0,0.2,0,0.5,0.1,0.6c0.1,0.2,0.2,0.3,0.4,0.4c0.2,0.1,0.3,0.2,0.5,0.3c0.2,0.1,0.4,0.1,0.6,0.1c0.4,0,0.7,0,1.1-0.1
		c0.3-0.1,0.6-0.2,0.9-0.4c0.3-0.2,0.5-0.4,0.6-0.7c0.2-0.3,0.2-0.6,0.2-1V19.3z"/>
	<path class="st0" d="M131.5,23.4V12.6h0.9v10.9H131.5z"/>
</g>
</svg>
