<?xml version="1.0" encoding="utf-8"?>
<!-- Generator: Adobe Illustrator 26.1.0, SVG Export Plug-In . SVG Version: 6.00 Build 0)  -->
<svg version="1.1"
	 id="svg27" inkscape:version="1.0.1 (3bc2e813f5, 2020-09-07)" sodipodi:docname="logo-polifonia.svg" xmlns:cc="http://creativecommons.org/ns#" xmlns:dc="http://purl.org/dc/elements/1.1/" xmlns:inkscape="http://www.inkscape.org/namespaces/inkscape" xmlns:rdf="http://www.w3.org/1999/02/22-rdf-syntax-ns#" xmlns:sodipodi="http://sodipodi.sourceforge.net/DTD/sodipodi-0.dtd" xmlns:svg="http://www.w3.org/2000/svg"
	 xmlns="http://www.w3.org/2000/svg" xmlns:xlink="http://www.w3.org/1999/xlink" x="0px" y="0px" viewBox="0 0 204.5 55.6"
	 style="enable-background:new 0 0 204.5 55.6;" xml:space="preserve">
<style type="text/css">
	.st0{fill:#FFFFFF;}
</style>
<sodipodi:namedview  bordercolor="#666666" borderopacity="1" gridtolerance="10" guidetolerance="10" id="namedview29" inkscape:current-layer="svg27" inkscape:cx="76.246748" inkscape:cy="28.287758" inkscape:document-rotation="0" inkscape:pageopacity="0" inkscape:pageshadow="2" inkscape:window-height="1027" inkscape:window-maximized="1" inkscape:window-width="1920" inkscape:window-x="-8" inkscape:window-y="22" inkscape:zoom="2.8782151" objecttolerance="10" pagecolor="#ffffff" showgrid="false">
	</sodipodi:namedview>
<g id="Raggruppa_1864" transform="translate(-5026.053 -4055.891)">
	<path id="Tracciato_111" class="st0" d="M5086.1,4069.7h-11.2v28.8h4.8v-11.4h6.2c6.1,0,9.9-3.4,9.9-8.8
		C5095.8,4073.1,5092,4069.7,5086.1,4069.7z M5079.7,4073.8h6c3.3,0,5.2,1.7,5.2,4.6c0,3-1.8,4.6-5.3,4.6h-5.9L5079.7,4073.8z"/>
	<path id="Tracciato_112" class="st0" d="M5191.6,4077c-2.4-0.2-4.7,0.9-6.1,2.9c0-0.8-0.1-1.8-0.1-2.2l0-0.3h-4.4l0,0.3
		c0,1.6,0,3.4,0,5.2v15.8h4.6v-11.4c0-2.9,0.8-6.4,4.9-6.4c2.6,0,3.9,1.5,3.9,4.7v13.1h4.6v-13.6
		C5198.9,4080.1,5196.2,4077,5191.6,4077z"/>
	<g id="Raggruppa_185" transform="translate(5343.332 4110.733)">
		<path id="Tracciato_113" class="st0" d="M-235-33.9L-235-33.9c-6.1,0.1-11,5-10.9,11.1c0.1,6,4.9,10.9,10.9,10.9l0,0
			c6.1,0.1,11.1-4.8,11.1-10.9c0.1-6.1-4.8-11.1-10.9-11.1C-234.9-33.9-234.9-33.9-235-33.9z M-235-16.3c-3.6,0-6.6-3-6.6-6.6
			c0-3.6,3-6.6,6.6-6.6c3.6,0,6.6,3,6.6,6.6C-228.4-19.2-231.3-16.3-235-16.3z"/>
		<path id="Tracciato_114" class="st0" d="M-177.6-33.9L-177.6-33.9c-6.1,0.1-11,5-10.9,11.1c0.1,6,4.9,10.9,10.9,10.9l0,0
			c6.1,0.1,11.1-4.8,11.1-10.9c0.1-6.1-4.8-11.1-10.9-11.1C-177.5-33.9-177.6-33.9-177.6-33.9z M-177.6-16.3c-3.6,0-6.6-3-6.6-6.6
			c0-3.6,3-6.6,6.6-6.6c3.6,0,6.6,3,6.6,6.6C-171-19.2-174-16.3-177.6-16.3z"/>
		<path id="Tracciato_115" class="st0" d="M-112.9-12.6c-0.2-1.5-0.3-3.1-0.3-4.6v-9.7c0-4.7-2.8-7.1-8.3-7.1h-0.1
			c-6.8,0-8.2,4.1-8.4,6.5l0,0.3h4.4l0.1-0.2c0.4-1.6,0.9-2.9,3.9-2.9c3.5,0,3.9,2,3.9,3.5v1.4h-3.1c-6.6,0-10.1,2.4-10.1,7.1
			c0,1.7,0.6,3.3,1.7,4.6c1.5,1.4,3.5,2.2,5.6,2.1c2.8,0,4.8-0.8,6-2.4c0,0.6,0.1,1.2,0.3,1.7l0.1,0.2h4.4L-112.9-12.6z
			 M-122.7-15.4c-2.2,0-3.5-1.2-3.5-3.2c0-2.5,1.8-3.6,5.7-3.6h2.9v0.3C-117.7-18-118.5-15.4-122.7-15.4L-122.7-15.4z"/>
	</g>
	<rect id="Rettangolo_165" x="5123.8" y="4068.3" class="st0" width="4.6" height="30.4"/>
	<path id="Tracciato_116" class="st0" d="M5153.6,4068.2c-0.8-0.2-1.6-0.3-2.5-0.3c-4.2,0-6.4,2.7-6.4,7.5v2h-3.3v3.8h3.3v17.5h4.6
		v-17.5h4v-3.8h-4v-1.8c0-2.4,0.4-3.7,2.5-3.7c0.5,0,1.1,0.1,1.6,0.2l0.4,0.1v-3.9L5153.6,4068.2z"/>
	<g id="Raggruppa_187" transform="translate(5450.133 4102.896)">
		<g id="Raggruppa_186" transform="translate(0 8.518)">
			<rect id="Rettangolo_166" x="-246" y="-34" class="st0" width="4.6" height="21.3"/>
		</g>
		<rect id="Rettangolo_167" x="-246" y="-34" class="st0" width="4.6" height="4.6"/>
	</g>
	<g id="Raggruppa_189" transform="translate(5379.686 4102.896)">
		<g id="Raggruppa_188" transform="translate(0 8.518)">
			<rect id="Rettangolo_168" x="-246" y="-34" class="st0" width="4.6" height="21.3"/>
		</g>
		<rect id="Rettangolo_169" x="-246" y="-34" class="st0" width="4.6" height="4.6"/>
	</g>
</g>
<g id="Raggruppa_1866" transform="translate(542.851 1230.594)">
	<path id="Tracciato_225" class="st0" d="M-542.9-1196.7v-1.3c2.6,0,4.7-2.1,4.8-4.8c0-2.6-2.1-4.8-4.8-4.8v-1.3
		c3.4,0,6.1,2.7,6.1,6.1C-536.8-1199.5-539.5-1196.7-542.9-1196.7z"/>
	<path id="Tracciato_226" class="st0" d="M-516.4-1202.8c0-6.9-2.7-13.5-7.5-18.4c0.3-0.3,0.6-0.6,1-0.9c5,5.2,7.8,12.1,7.8,19.3
		c0,3.4-0.6,6.8-1.8,9.9c-0.3-0.4-0.7-0.8-1-1.3C-516.9-1197-516.4-1199.9-516.4-1202.8z M-518.4-1192.7
		c-4.1,9.9-13.7,16.3-24.4,16.3v1.3c11,0,20.9-6.5,25.4-16.5C-517.8-1191.9-518.1-1192.3-518.4-1192.7z M-523.9-1223.1
		c-5.1-4.8-11.9-7.5-19-7.5v1.3c6.7,0,13.1,2.5,18,7.1C-524.5-1222.5-524.2-1222.8-523.9-1223.1L-523.9-1223.1z"/>
	<path id="Tracciato_227" class="st0" d="M-542.9-1218.4v-1.3c9.3,0,16.9,7.6,16.9,16.9c0,3.7-1.2,7.2-3.4,10.1
		c-0.2-0.5-0.4-1-0.6-1.5c1.7-2.6,2.6-5.6,2.6-8.6C-527.3-1211.4-534.2-1218.4-542.9-1218.4z M-530.8-1192.9c-3,3.6-7.4,5.7-12,5.7
		v1.3c4.8,0,9.4-2,12.6-5.6C-530.5-1192-530.7-1192.4-530.8-1192.9L-530.8-1192.9z"/>
	<path id="Tracciato_228" class="st0" d="M-504.9-1196.7c-3.4,0-6.1-2.7-6.1-6.1c0-3.4,2.7-6.1,6.1-6.1v1.3c-2.6,0-4.7,2.1-4.8,4.8
		c0,2.6,2.1,4.7,4.8,4.8V-1196.7z"/>
	<path id="Tracciato_229" class="st0" d="M-524.8-1183.5c-5-5.2-7.8-12.1-7.8-19.3c0-3.4,0.6-6.8,1.8-9.9c0.3,0.4,0.7,0.8,1,1.3
		c-1,2.8-1.5,5.7-1.5,8.6c0,6.9,2.7,13.5,7.5,18.4C-524.2-1184.1-524.5-1183.8-524.8-1183.5z M-523.9-1182.6
		c5.1,4.8,11.9,7.5,19,7.5v-1.3c-6.7,0-13.1-2.5-18-7.1C-523.2-1183.2-523.6-1182.9-523.9-1182.6L-523.9-1182.6z M-530.3-1214.1
		c0.3,0.4,0.6,0.8,1,1.2c4.1-9.9,13.7-16.3,24.4-16.3v-1.3C-515.9-1230.6-525.8-1224.1-530.3-1214.1L-530.3-1214.1z"/>
	<path id="Tracciato_230" class="st0" d="M-504.9-1187.2v1.3c-9.3,0-16.9-7.6-16.9-16.9c0-3.7,1.2-7.2,3.4-10.1
		c0.2,0.5,0.4,1,0.6,1.5c-1.7,2.6-2.6,5.6-2.6,8.6C-520.5-1194.2-513.5-1187.2-504.9-1187.2z M-517.5-1214.1
		c0.2,0.5,0.4,0.9,0.6,1.4c3-3.6,7.4-5.7,12-5.7v-1.3C-509.7-1219.8-514.3-1217.7-517.5-1214.1L-517.5-1214.1z"/>
</g>
</svg>
