<?xml version="1.0" encoding="utf-8"?>
<!-- Generator: Adobe Illustrator 26.1.0, SVG Export Plug-In . SVG Version: 6.00 Build 0)  -->
<svg version="1.1" id="Livello_1" xmlns="http://www.w3.org/2000/svg" xmlns:xlink="http://www.w3.org/1999/xlink" x="0px" y="0px"
	 viewBox="0 0 195.3 41.7" style="enable-background:new 0 0 195.3 41.7;" xml:space="preserve">
<g id="Raggruppa_1864">
	<path id="Tracciato_111" d="M50.6,6H39.4v29h5V23h6c6,0,9.7-3.3,9.7-8.6C60.1,9.3,56.4,6,50.6,6z M44.4,10h5.8c3.2,0,5,1.6,5,4.5
		S53.5,19,50.1,19h-5.7C44.4,19,44.4,10,44.4,10z"/>
	<path id="Tracciato_112" d="M155.6,13.5c-2.6-0.2-5.1,0.9-6.7,2.9c0-0.7-0.1-1.4-0.2-2.2V14h-3.3v0.3c0,1.6,0,3.4,0,5.1V35h4V23.6
		c0-2.9,0.9-6.4,5-6.4c2.7,0,4,1.5,4,4.7V35h5V21.6C163.4,16.5,160.5,13.5,155.6,13.5z"/>
	<g id="Raggruppa_185">
		<path id="Tracciato_113" d="M72.6,13L72.6,13c-6.1,0-11,4.9-11,11s4.9,11,11,11l0,0c6.1,0.1,11.1-4.8,11.1-10.9
			c0-1.1-0.1-2.2-0.5-3.3c-1.4-4.6-5.6-7.8-10.4-7.8C72.8,13,72.6,13,72.6,13z M72.6,30.9c-3.6,0-6.6-3-6.6-6.6s3-6.6,6.6-6.6
			s6.6,3,6.6,6.6l0,0C79.2,28,76.3,30.9,72.6,30.9z"/>
		<path id="Tracciato_114" d="M130,13L130,13c-6.1,0-11,4.9-11,11s4.9,11,11,11l0,0c6.1,0.1,11-4.8,11.1-10.9c0-1.1-0.2-2.2-0.5-3.3
			c-1.4-4.6-5.6-7.8-10.4-7.8C130.2,13,130,13,130,13z M130,30.9c-3.6,0-6.6-3-6.6-6.6s3-6.6,6.6-6.6c3.6,0,6.6,3,6.6,6.6
			S133.6,30.9,130,30.9L130,30.9z"/>
		<path id="Tracciato_115" d="M194.7,34.6c-0.2-1.5-0.3-4.6-0.3-4.6v-9.7c0-2-0.7-3.9-2-5.3c-1.3-1.3-4.1-1.9-6.3-2l0,0
			c-6.8,0.2-8.2,4.3-8.4,6.7V20h4.4l0.1-0.2c0.4-1.6,0.9-2.9,3.9-2.9c3.5,0,3.4,3.5,3.4,3.5V22h-2.6c-6.6-0.3-10.1,2.2-10.1,6.8
			c0,1.7,0.6,3.3,1.7,4.6c1.5,1.4,3.4,2.2,5.5,2.1c2.8,0,4.8-0.8,6-2.4c0,0.6,0.1,1.2,0.3,1.7l0.1,0.2h4.4L194.7,34.6z M185.4,31.8
			c-2.2,0-3.5-1.2-3.5-3.2c0-2.5,1.8-3.6,5.7-3.6h2.9v0.3C190.4,29.2,189.6,31.8,185.4,31.8L185.4,31.8z"/>
	</g>
	<rect id="Rettangolo_165" x="87.4" y="5" width="5" height="30"/>
	<path id="Tracciato_116" d="M118.2,4.3c-0.9-0.2-1.8-0.3-2.7-0.3c-4.6,0-7.1,2.9-7.1,8.2V14h-3v3h3v18h5V18h4v-4h-4v-1.9
		c0.1-2.4,0.5-3.7,2.6-3.7c0.5,0,1.1,0.1,1.6,0.2l0.7,0.1L118.2,4.3L118.2,4.3z"/>
	<g id="Raggruppa_187">
		<g id="Raggruppa_186">
			<rect id="Rettangolo_166" x="168.4" y="14" width="5" height="21"/>
		</g>
		<rect id="Rettangolo_167" x="168.4" y="5" width="5" height="5"/>
	</g>
	<g id="Raggruppa_189">
		<g id="Raggruppa_188">
			<rect id="Rettangolo_168" x="97.4" y="14" width="5" height="21"/>
		</g>
		<rect id="Rettangolo_169" x="97.4" y="5" width="5" height="5"/>
	</g>
</g>
<g id="Raggruppa_1866">
	<path id="Tracciato_225" d="M0,25v-1c1.9,0,3.5-1.6,3.5-3.5S1.9,17.1,0,17.1v-1c2.5,0,4.5,2,4.5,4.5C4.5,23,2.5,25,0,25z"/>
	<path id="Tracciato_226" d="M19.5,20.6c0-5.1-1.9-9.9-5.5-13.6c0.2-0.2,0.5-0.5,0.7-0.7c3.7,3.8,5.8,8.9,5.8,14.2
		c0,2.5-0.5,5-1.4,7.3c-0.2-0.3-0.5-0.6-0.7-0.9C19.1,24.8,19.5,22.7,19.5,20.6z M18,28C15,35.3,7.9,40,0,40v1
		c8.1,0,15.4-4.8,18.7-12.1C18.4,28.6,18.2,28.3,18,28z M14,5.7C10.2,2.1,5.2,0.1,0,0.1v1c4.9,0,9.7,1.9,13.3,5.2
		C13.5,6.1,13.7,5.9,14,5.7L14,5.7z"/>
	<path id="Tracciato_227" d="M0,9.1v-1c6.9,0,12.5,5.6,12.5,12.5c0,2.7-0.9,5.3-2.5,7.4c-0.1-0.4-0.3-0.7-0.4-1.1
		c1.3-1.9,1.9-4.1,1.9-6.4C11.5,14.2,6.3,9.1,0,9.1z M8.8,27.9C6.7,30.5,3.4,32,0,32v1c3.5,0,6.9-1.5,9.3-4.1
		C9.1,28.5,9,28.2,8.8,27.9L8.8,27.9z"/>
	<path id="Tracciato_228" d="M28,25c-2.5,0-4.5-2-4.5-4.5s2-4.5,4.5-4.5l0,0v1c-1.9,0-3.5,1.6-3.5,3.5S26.1,24,28,24l0,0V25z"/>
	<path id="Tracciato_229" d="M13.3,34.8C7.7,29.1,6,20.7,8.8,13.3c0.3,0.3,0.5,0.6,0.7,0.9C7.1,21.1,8.9,28.8,14,34.1
		C13.7,34.3,13.5,34.5,13.3,34.8z M14,35.5C17.8,39,22.8,41,28,41v-1c-4.9,0-9.7-1.9-13.3-5.2C14.5,35,14.3,35.2,14,35.5L14,35.5z
		 M9.3,12.1c0.2,0.3,0.5,0.6,0.7,0.9C13,5.7,20.1,1,28,1V0C19.9,0,12.6,4.7,9.3,12.1z"/>
	<path id="Tracciato_230" d="M28,32v1c-6.9,0-12.5-5.5-12.5-12.4c0-2.7,0.9-5.3,2.5-7.5c0.1,0.4,0.3,0.7,0.4,1.1
		c-3.5,5.3-2.1,12.4,3.2,15.9C23.5,31.3,25.7,32,28,32z M18.7,12.1c0.1,0.3,0.3,0.7,0.4,1C21.3,10.5,24.6,9,28,9V8
		C24.5,8,21.1,9.5,18.7,12.1L18.7,12.1z"/>
</g>
</svg>
