<?xml version="1.0" encoding="utf-8"?>
<!-- Generator: Adobe Illustrator 26.1.0, SVG Export Plug-In . SVG Version: 6.00 Build 0)  -->
<svg version="1.1" id="Livello_1" xmlns="http://www.w3.org/2000/svg" xmlns:xlink="http://www.w3.org/1999/xlink" x="0px" y="0px"
	 viewBox="0 0 481.9 143.1" style="enable-background:new 0 0 481.9 143.1;" xml:space="preserve">
<style type="text/css">
	.st0{stroke:#000000;stroke-width:0.75;stroke-miterlimit:10;}
</style>
<g>
	<path d="M157.9,40.7h-25.1v64.7h10.8V79.8h13.9c13.7,0,22.3-7.6,22.3-19.8C179.7,48.3,171.2,40.7,157.9,40.7z M143.6,49.8h13.5
		c7.4,0,11.6,3.8,11.6,10.4c0,6.8-4.1,10.4-11.9,10.4h-13.2L143.6,49.8z"/>
	<path d="M394.7,57.1c-6.2,0-10.8,2.2-13.8,6.6c-0.1-1.8-0.2-4-0.3-4.9l-0.1-0.6h-10v0.7c0.1,3.6,0.1,7.7,0.1,11.7V106H381V80.5
		c0-6.6,1.9-14.4,10.9-14.4c5.9,0,8.7,3.4,8.7,10.5V106h10.3V75.5C410.8,64,404.8,57.1,394.7,57.1z"/>
	<path d="M207.8,56.8L207.8,56.8c-13.6,0-24.7,11-24.7,24.7c0,13.6,11,24.7,24.7,24.7c0,0,0,0,0,0l0,0c13.6,0,24.7-11.1,24.7-24.7
		S221.4,56.8,207.8,56.8z M207.8,96.3c-8.2,0-14.8-6.6-14.8-14.8s6.6-14.8,14.8-14.8s14.8,6.6,14.8,14.8
		C222.6,89.6,215.9,96.3,207.8,96.3z"/>
	<path d="M336.4,56.8L336.4,56.8c-13.6,0-24.7,11-24.7,24.7s11,24.7,24.7,24.7c0,0,0,0,0,0l0,0c13.6,0,24.7-11.1,24.7-24.7
		S350.1,56.8,336.4,56.8z M336.4,96.3c-8.2,0-14.8-6.6-14.8-14.8c0-8.2,6.6-14.8,14.8-14.8c8.2,0,14.8,6.6,14.8,14.8
		S344.6,96.3,336.4,96.3L336.4,96.3z"/>
	<path d="M481.7,104.5c-0.4-3.4-0.7-6.9-0.6-10.3V72.5c0-10.6-6.3-16-18.6-16h-0.1c-15.2,0-18.4,9.1-18.9,14.6l-0.1,0.7h9.9l0.1-0.5
		c0.8-3.6,2-6.6,8.7-6.6c7.9,0,8.8,4.5,8.8,7.9v3.1h-7c-14.8,0-22.6,5.5-22.6,15.9c-0.1,3.8,1.3,7.5,3.9,10.2
		c2.9,3.1,7.2,4.7,12.5,4.7c6.2,0,10.7-1.8,13.5-5.5c0.1,1.3,0.3,2.6,0.6,3.9l0.2,0.4h9.9L481.7,104.5z M459.7,98.2
		c-4.9,0-7.9-2.8-7.9-7.2c0-5.5,4-8,12.8-8h6.4v0.8C471,92.4,469.1,98.2,459.7,98.2z"/>
	<rect x="242.4" y="37.5" width="10.3" height="68.2"/>
	<path d="M309.2,37.2c-1.8-0.4-3.7-0.6-5.5-0.6c-9.3,0-14.5,6-14.5,16.8V58h-7.3v8.5h7.3v39.3h10.3V66.5h9.1V58h-9.1v-4
		c0-5.3,0.9-8.3,5.6-8.3c1.2,0,2.4,0.1,3.6,0.4l0.8,0.2v-8.8L309.2,37.2z"/>
	<rect x="422.7" y="58" width="10.3" height="47.8"/>
	<rect x="422.7" y="38.9" width="10.3" height="10.3"/>
	<rect x="264.6" y="58" width="10.3" height="47.8"/>
	<rect x="264.6" y="38.9" width="10.3" height="10.3"/>
</g>
<g>
	<path class="st0" d="M10.6,83.8v-2.7c5.3,0,9.6-4.3,9.6-9.6c0-5.3-4.3-9.6-9.6-9.6v-2.7c6.8,0,12.3,5.5,12.3,12.3
		C22.9,78.3,17.4,83.8,10.6,83.8z"/>
	<path class="st0" d="M63.9,71.5c0-13.8-5.4-27.1-15-37.1c0.6-0.6,1.3-1.3,1.9-1.9C61,43,66.6,57,66.6,71.5c0,6.8-1.3,13.6-3.7,20
		c-0.7-0.8-1.3-1.7-1.9-2.6C62.9,83.4,63.9,77.5,63.9,71.5z M59.8,92c-8.3,19.9-27.7,32.8-49.2,32.9v2.7c22.1,0,42.1-13,51.1-33.2
		C61.1,93.6,60.4,92.8,59.8,92z M48.9,30.7c-10.4-9.7-24-15.2-38.3-15.2v2.7c13.5,0,26.5,5.1,36.3,14.4C47.6,32,48.2,31.3,48.9,30.7
		z"/>
	<path class="st0" d="M10.6,40.1v-2.7c18.8,0,34.1,15.3,34.1,34.1c0,7.4-2.4,14.6-6.8,20.5c-0.4-1-0.8-2-1.2-3
		c3.5-5.2,5.3-11.2,5.3-17.4C42,54.2,28,40.1,10.6,40.1z M34.9,91.6C28.9,98.8,20,103,10.6,103v2.7c9.7,0,18.9-4.1,25.4-11.3
		C35.6,93.4,35.2,92.5,34.9,91.6z"/>
	<path class="st0" d="M87.1,83.8c-6.8,0.2-12.4-5.2-12.6-12c-0.2-6.8,5.2-12.4,12-12.6c0.2,0,0.4,0,0.6,0V62c-5.3,0-9.6,4.3-9.6,9.6
		c0,5.3,4.3,9.6,9.6,9.6c0,0,0,0,0,0V83.8z"/>
	<path class="st0" d="M46.9,110.5C31.8,94.9,27,71.9,34.8,51.5c0.7,0.8,1.3,1.7,1.9,2.6c-6.6,19-1.9,40.1,12.1,54.5
		C48.2,109.3,47.6,109.9,46.9,110.5z M48.9,112.4c10.4,9.7,24,15.2,38.3,15.2v-2.7c-13.5,0-26.5-5.1-36.3-14.4
		C50.2,111.1,49.5,111.8,48.9,112.4z M36,48.7c0.7,0.8,1.3,1.6,1.9,2.3c8.3-19.9,27.7-32.9,49.2-32.9v-2.7C65,15.6,45,28.6,36,48.7z
		"/>
	<path class="st0" d="M87.1,103v2.7C68.3,105.7,53,90.4,53,71.6c0-7.4,2.4-14.6,6.8-20.5c0.4,1,0.8,2,1.2,3
		c-9.6,14.4-5.7,33.9,8.7,43.6C74.8,101.2,80.9,103,87.1,103z M61.7,48.7c0.4,0.9,0.8,1.8,1.2,2.8c6-7.2,14.9-11.4,24.3-11.4v-2.7
		C77.5,37.4,68.2,41.5,61.7,48.7z"/>
</g>
</svg>
