<?xml version="1.0" encoding="utf-8"?>
<!-- Generator: Adobe Illustrator 26.1.0, SVG Export Plug-In . SVG Version: 6.00 Build 0)  -->
<svg version="1.1" id="Livello_1" xmlns="http://www.w3.org/2000/svg" xmlns:xlink="http://www.w3.org/1999/xlink" x="0px" y="0px"
	 viewBox="0 0 28 20.9" style="enable-background:new 0 0 28 20.9;" xml:space="preserve">
<style type="text/css">
	.st0{stroke:#000000;stroke-width:0.75;stroke-miterlimit:10;}
	.st1{stroke:#000000;stroke-width:0.75;stroke-linejoin:round;}
	.st2{fill:none;stroke:#000000;stroke-width:0.75;stroke-miterlimit:10;}
</style>
<path class="st0" d="M3.4,5.7h3C8,5.7,9.3,7,9.3,8.6v3.8c0,1.6-1.3,2.9-2.9,2.9h-3c-1.6,0-2.9-1.3-2.9-2.9V8.6
	C0.5,7,1.8,5.7,3.4,5.7z"/>
<polygon class="st1" points="11,1.8 11,19.3 2.9,10.7 "/>
<path class="st2" d="M17.3,1.6L17.3,1.6c4.9,0,8.9,4,8.9,8.9s-4,8.9-8.9,8.9"/>
<path class="st2" d="M16.3,4.9L16.3,4.9c3.1,0,5.6,2.5,5.6,5.6s-2.5,5.6-5.6,5.6l0,0"/>
<path class="st2" d="M15.3,8.4L15.3,8.4c1.2,0,2.1,0.9,2.1,2.1s-0.9,2.1-2.1,2.1l0,0"/>
</svg>
