<?xml version="1.0" encoding="utf-8"?>
<!-- Generator: Adobe Illustrator 26.1.0, SVG Export Plug-In . SVG Version: 6.00 Build 0)  -->
<svg version="1.1" id="Livello_1" xmlns="http://www.w3.org/2000/svg" xmlns:xlink="http://www.w3.org/1999/xlink" x="0px" y="0px"
	 viewBox="0 0 28 20.9" style="enable-background:new 0 0 28 20.9;" xml:space="preserve">
<style type="text/css">
	.st0{stroke:#000000;stroke-width:0.75;stroke-miterlimit:10;}
	.st1{stroke:#000000;stroke-width:0.75;stroke-linejoin:round;}
	.st2{fill:none;stroke:#000000;stroke-width:0.75;stroke-miterlimit:10;}
</style>
<path class="st0" d="M4.9,7.6h1.8c1,0,1.8,0.8,1.8,1.8v2.3c0,1-0.8,1.8-1.8,1.8H4.9c-1,0-1.8-0.8-1.8-1.8V9.3
	C3.1,8.4,3.9,7.6,4.9,7.6z"/>
<polygon class="st1" points="11.5,3.9 11.5,17.2 5.3,10.7 "/>
<path class="st2" d="M18.4,4.2L18.4,4.2c3.6,0,6.5,2.9,6.5,6.5s-2.9,6.5-6.5,6.5"/>
<path class="st2" d="M15.7,6.6L15.7,6.6c2.3,0,4.1,1.8,4.1,4.1s-1.8,4.1-4.1,4.1l0,0"/>
<path class="st2" d="M14,9.2L14,9.2c0.9,0,1.5,0.7,1.5,1.5s-0.6,1.5-1.5,1.5l0,0"/>
</svg>
