<svg xmlns="http://www.w3.org/2000/svg" viewBox="0 0 46.05 46.21"><defs><style>.cls-1{fill:none;stroke:#3b3735;stroke-linecap:round;stroke-linejoin:round;stroke-width:2px;}</style></defs><g id="Livello_2" data-name="Livello 2"><g id="Layer_2" data-name="Layer 2"><path class="cls-1" d="M5.84,40.37C-2.91,31.62,2.35,26.56,5,25.24a42.9,42.9,0,0,1,6.92-2.39s4.17-1.16,4.6-5.41c.35-3.54,7.13-8.07,7.13-8.07S19.16,16.82,21,18.85s2.79.53,4.49,2"/><path class="cls-1" d="M5.84,40.37c8.76,8.75,13.81,3.49,15.13.83s1.28-5.37,2.11-7.2c0,0,1-3.63,6.25-4.83,3.4-.79,4.9-4.44,4.9-4.44s-4.84,2.32-6.87.46-.53-2.79-2-4.49"/><line class="cls-1" x1="9.17" y1="33.53" x2="12.71" y2="37.06"/><line class="cls-1" x1="12.71" y1="31.41" x2="14.83" y2="33.53"/><polyline class="cls-1" points="26.14 22.21 38.17 10.19 36.05 8.07 24.02 20.09"/><line class="cls-1" x1="40.29" y1="1" x2="40.99" y2="1.71"/><line class="cls-1" x1="37.46" y1="2.41" x2="38.17" y2="3.12"/><line class="cls-1" x1="34.63" y1="3.83" x2="36.04" y2="5.24"/><path class="cls-1" d="M38.17,10.19,35.43,7.45a1,1,0,0,1,.15-1.55l6-4.28a1,1,0,0,1,1.3.09l1.88,1.88a1,1,0,0,1,0,1.44L39.6,10.17A1,1,0,0,1,38.17,10.19Z"/></g></g></svg>