<svg xmlns="http://www.w3.org/2000/svg" viewBox="0 0 62.3 63.37"><defs><style>.cls-1,.cls-2{fill:none;stroke-linecap:round;stroke-linejoin:round;stroke-width:2px;}.cls-1{stroke:#333;}.cls-2{stroke:#3b3735;}</style></defs><g id="Livello_2" data-name="Livello 2"><g id="Layer_2" data-name="Layer 2"><circle class="cls-1" cx="16.25" cy="37.1" r="15.25"/><path class="cls-1" d="M27,47.88a14.86,14.86,0,0,1-1.72,1.47L37.67,61.71a2.26,2.26,0,0,0,3.19,0l.35-.36a2.25,2.25,0,0,0,0-3.18L28.79,45.76A14.56,14.56,0,0,1,27,47.88Z"/><line class="cls-1" x1="15.58" y1="30.68" x2="15.58" y2="42.68"/><line class="cls-1" x1="21.58" y1="36.68" x2="9.58" y2="36.68"/><circle class="cls-2" cx="42.62" cy="34.81" r="5.37"/><line class="cls-2" x1="48.23" y1="34.73" x2="48.23" y2="4.73"/><path class="cls-2" d="M48.23,3.41S51.16,9,55,10.1c2.85.85,6.89,4.63,6.23,13.63,0,0-3.27-6.74-7.3-8.45C50.06,13.64,48.23,12.16,48.23,3.41Z"/><circle class="cls-2" cx="31.01" cy="15.4" r="2.46"/><line class="cls-2" x1="33.58" y1="15.36" x2="33.58" y2="1.6"/><path class="cls-2" d="M33.58,1s1.34,2.55,3.1,3.07c1.31.39,3.17,2.12,2.86,6.25,0,0-1.5-3.09-3.34-3.88S33.58,5,33.58,1Z"/></g></g></svg>