<svg xmlns="http://www.w3.org/2000/svg" viewBox="0 0 99.21 177.56"><g id="Livello_2" data-name="Livello 2"><g id="Livello_1-2" data-name="Livello 1"><path d="M7.14,158.86H0v18.39H3.07V170H7c3.9,0,6.33-2.15,6.33-5.62S10.91,158.86,7.14,158.86Zm-4.07,2.6H6.91c2.1,0,3.3,1.08,3.3,3s-1.17,3-3.39,3H3.07Z"/><path d="M74.43,163.53a4.38,4.38,0,0,0-3.91,1.87c0-.53,0-1.15-.09-1.4l0-.16H67.57v.2c0,1,0,2.18,0,3.32v10.06h2.93v-7.25c0-1.87.53-4.09,3.09-4.09,1.66,0,2.47,1,2.47,3v8.35H79v-8.66C79,165.48,77.3,163.53,74.43,163.53Z"/><path d="M21.31,163.43h0a7,7,0,1,0,0,14h0a7,7,0,0,0,0-14Zm0,11.24a4.22,4.22,0,1,1,4.21-4.22A4.22,4.22,0,0,1,21.31,174.67Z"/><path d="M57.88,163.43h0a7,7,0,0,0,0,14h0a7,7,0,1,0,0-14Zm0,11.24a4.22,4.22,0,1,1,4.21-4.22A4.22,4.22,0,0,1,57.88,174.67Z"/><path d="M99.16,177a22.79,22.79,0,0,1-.17-2.94v-6.16c0-3-1.78-4.55-5.29-4.56h0c-4.32,0-5.21,2.6-5.36,4.15l0,.21H91.1l0-.15c.23-1,.57-1.88,2.48-1.88,2.24,0,2.49,1.29,2.49,2.25v.87h-2c-4.22,0-6.44,1.56-6.44,4.51a4.15,4.15,0,0,0,1.11,2.91,4.74,4.74,0,0,0,3.54,1.34A4.55,4.55,0,0,0,96.17,176a5.46,5.46,0,0,0,.19,1.12l0,.12h2.8Zm-6.26-1.79a2,2,0,0,1-2.25-2.06c0-1.57,1.13-2.27,3.65-2.27h1.82v.22C96.12,173.58,95.57,175.22,92.9,175.22Z"/><rect x="31.14" y="157.97" width="2.93" height="19.39"/><path d="M50.14,157.89a6.69,6.69,0,0,0-1.56-.18c-2.65,0-4.11,1.7-4.11,4.77v1.31H42.38v2.41h2.09v11.17H47.4V166.2H50v-2.41H47.4v-1.14c0-1.5.26-2.37,1.6-2.37a5.32,5.32,0,0,1,1,.1l.23.05v-2.5Z"/><rect x="82.39" y="163.79" width="2.93" height="13.58"/><rect x="82.39" y="158.35" width="2.93" height="2.93"/><rect x="37.47" y="163.79" width="2.93" height="13.58"/><rect x="37.47" y="158.35" width="2.93" height="2.93"/><path d="M0,88.54V85A12.43,12.43,0,0,0,12.42,72.62,12.44,12.44,0,0,0,0,60.19v-3.5A15.94,15.94,0,0,1,15.92,72.62,15.94,15.94,0,0,1,0,88.54Z"/><path d="M69.12,72.62A68.85,68.85,0,0,0,49.61,24.57c.81-.84,1.65-1.66,2.5-2.45a72.32,72.32,0,0,1,20.51,50.5,72.2,72.2,0,0,1-4.81,25.92,40.89,40.89,0,0,1-2.5-3.34A69,69,0,0,0,69.12,72.62Zm-5.3,26.51A69.22,69.22,0,0,1,0,141.73v3.5a72.69,72.69,0,0,0,66.3-43C65.43,101.2,64.6,100.18,63.82,99.13ZM49.61,19.66A72.33,72.33,0,0,0,0,0V3.5A68.84,68.84,0,0,1,47.12,22.12Q48.34,20.86,49.61,19.66Z"/><path d="M0,31.85v-3.5A44.32,44.32,0,0,1,44.27,72.62a44.09,44.09,0,0,1-8.85,26.53c-.54-1.29-1.05-2.6-1.51-3.93a40.52,40.52,0,0,0,6.86-22.6A40.82,40.82,0,0,0,0,31.85ZM31.41,98.58A40.69,40.69,0,0,1,0,113.39v3.5a44.19,44.19,0,0,0,32.91-14.7C32.38,101,31.88,99.8,31.41,98.58Z"/><path d="M99.21,88.54a15.93,15.93,0,0,1,0-31.85v3.5a12.43,12.43,0,0,0,0,24.85Z"/><path d="M47.1,123.12A72.45,72.45,0,0,1,31.4,46.69,37.37,37.37,0,0,1,33.9,50a68.94,68.94,0,0,0,15.7,70.62C48.79,121.5,48,122.32,47.1,123.12Zm2.5,2.45a72.33,72.33,0,0,0,49.61,19.66v-3.5a68.84,68.84,0,0,1-47.12-18.62Q50.88,124.37,49.6,125.57ZM32.91,43.05c.88,1,1.7,2,2.48,3.05A69.23,69.23,0,0,1,99.21,3.5V0A72.71,72.71,0,0,0,32.91,43.05Z"/><path d="M99.21,113.39v3.5A44.24,44.24,0,0,1,63.79,46.1c.54,1.29,1.05,2.59,1.51,3.92a40.74,40.74,0,0,0,33.91,63.37ZM66.29,43.06c.54,1.18,1,2.39,1.5,3.61A40.68,40.68,0,0,1,99.21,31.85v-3.5A44.14,44.14,0,0,0,66.29,43.06Z"/></g></g></svg>