<svg xmlns="http://www.w3.org/2000/svg" viewBox="0 0 37.35 48"><defs><style>.cls-1,.cls-2{fill:none;stroke:#333;stroke-linecap:round;stroke-linejoin:round;stroke-width:2px;}.cls-2{stroke-dasharray:1.97 2.96;}</style></defs><g id="Livello_2" data-name="Livello 2"><g id="Layer_2" data-name="Layer 2"><path class="cls-1" d="M15.05,47H29.88a16.49,16.49,0,0,0,4.46-7.59l2-10.14a2.59,2.59,0,0,0-2.66-2.87c-1.72,0-2.53,1.44-2.53,3.08V26.7a3.29,3.29,0,0,0-3.37-3c-1.72,0-2.63,1.33-2.63,3V24.38a3,3,0,0,0-6,0V12c0-4-6-4-6,0V33.85L8.44,30.19C6,27.87,3.43,26.94,1,29.26L12,44.33A8.29,8.29,0,0,0,15.05,47Z"/><line class="cls-1" x1="10.16" y1="19" x2="9.16" y2="19"/><path class="cls-2" d="M6.16,19H4.27a2.3,2.3,0,0,1-2.11-2.52V3.22A2,2,0,0,1,4.27,1H31.54a2.48,2.48,0,0,1,2.62,2.22V16.48A2.73,2.73,0,0,1,31.54,19H24.16"/><line class="cls-1" x1="23.16" y1="19" x2="22.16" y2="19"/></g></g></svg>