<?xml version="1.0" encoding="utf-8"?>
<!-- Generator: Adobe Illustrator 26.1.0, SVG Export Plug-In . SVG Version: 6.00 Build 0)  -->
<svg version="1.1" id="Livello_1" xmlns="http://www.w3.org/2000/svg" xmlns:xlink="http://www.w3.org/1999/xlink" x="0px" y="0px"
	 viewBox="0 0 40.4 52.1" style="enable-background:new 0 0 40.4 52.1;" xml:space="preserve">
<style type="text/css">
	.st0{fill:none;stroke:#343434;stroke-width:2;stroke-linecap:round;stroke-linejoin:round;}
	.st1{fill:none;stroke:#3B3735;stroke-width:2;stroke-linecap:round;stroke-linejoin:round;}
</style>
<g id="Livello_2_00000013183958768244593300000003492515446087611295_">
	<g id="Layer_2">
		<path class="st0" d="M19,11.8C9,11.9,1,19.9,1,29.9s8.1,18,18.1,17.9c9.9,0,18-8.1,17.9-18.1c0-4-1.4-7.9-3.9-11.1"/>
		<path class="st0" d="M19,11.8c-5.4,0-9.8,8.1-9.8,18s4.4,18,9.8,18s9.8-8.1,9.8-18c0-2.2-0.2-4.5-0.7-6.7"/>
		<line class="st0" x1="35.4" y1="23.2" x2="2.4" y2="23.2"/>
		<line class="st0" x1="35.4" y1="36.2" x2="2.4" y2="36.2"/>
		<line class="st0" x1="18.4" y1="12.2" x2="18.4" y2="47.2"/>
		<circle class="st1" cx="24.9" cy="17.2" r="2.4"/>
		<path class="st1" d="M27.3,17V4c0-0.2,0.2-0.4,0.4-0.5l11.1-1.8c0.3,0,0.5,0.1,0.5,0.4c0,0,0,0.1,0,0.1v13.7"/>
		<line class="st1" x1="39.4" y1="5.8" x2="27.4" y2="7.8"/>
		<circle class="st1" cx="36.9" cy="15.9" r="2.4"/>
	</g>
</g>
</svg>
