<?xml version="1.0" encoding="utf-8"?>
<!-- Generator: Adobe Illustrator 26.1.0, SVG Export Plug-In . SVG Version: 6.00 Build 0)  -->
<svg version="1.1" id="Livello_1" xmlns="http://www.w3.org/2000/svg" xmlns:xlink="http://www.w3.org/1999/xlink" x="0px" y="0px"
	 viewBox="0 0 61.6 50.7" style="enable-background:new 0 0 61.6 50.7;" xml:space="preserve">
<style type="text/css">
	.st0{fill:none;stroke:#343434;stroke-width:2;stroke-linecap:round;stroke-linejoin:round;}
	.st1{fill:none;stroke:#3B3735;stroke-width:2;stroke-linecap:round;stroke-linejoin:round;}
</style>
<g id="Livello_2_00000092439179959883987080000011808838944765414034_">
	<g id="Layer_2">
		<polyline class="st0" points="48.7,14.1 48.7,31.2 44.2,26.9 44,26.9 39.8,31.2 39.8,14.1 		"/>
		<path class="st0" d="M56.1,49.5H5.5c-0.7,0-1.2-0.5-1.3-1.2L1.5,14.5c0-0.7,0.5-1.3,1.2-1.4c0,0,0.1,0,0.1,0h56
			c0.7,0,1.3,0.6,1.3,1.3c0,0,0,0.1,0,0.1l-2.7,33.8C57.3,49,56.8,49.5,56.1,49.5z"/>
		<path class="st0" d="M26.2,6.9V2.4c0-0.7-0.6-1.3-1.3-1.3H7.3C6.5,1.1,6,1.7,6,2.4v10.7h49v-5c0-0.7-0.6-1.3-1.3-1.3H26.2z"/>
		<circle class="st1" cx="14.1" cy="38.6" r="2.6"/>
		<path class="st1" d="M16.7,38.4V24.3c0-0.3,0.2-0.5,0.4-0.5l11.9-1.9c0.3,0,0.5,0.1,0.6,0.4c0,0,0,0.1,0,0.1v14.7"/>
		<line class="st1" x1="29.7" y1="26.3" x2="16.7" y2="28.4"/>
		<circle class="st1" cx="27.1" cy="37.1" r="2.6"/>
	</g>
</g>
</svg>
