<svg xmlns="http://www.w3.org/2000/svg" viewBox="0 0 49.5 38.19"><defs><style>.cls-1{fill:none;stroke:#333;stroke-linecap:round;stroke-linejoin:round;stroke-width:2px;}</style></defs><g id="Livello_2" data-name="Livello 2"><g id="Layer_2" data-name="Layer 2"><polygon class="cls-1" points="30.08 5.17 30.08 16.83 32.79 14.16 32.87 14.16 35.08 14.83 35.08 3.17 30.08 5.17"/><path class="cls-1" d="M45.08,6.65H47.5a1,1,0,0,1,1,1V36.19a1,1,0,0,1-1,1H2a1,1,0,0,1-1-1V7.65a1,1,0,0,1,1-1H4.08"/><path class="cls-1" d="M24.33,36C16,27.84,4.08,35,4.08,35V7S16.14-1,24.35,7Z"/><line class="cls-1" x1="24.69" y1="6.96" x2="24.6" y2="35.96"/><path class="cls-1" d="M34.59,32.07A23.78,23.78,0,0,1,45.08,35V7A24.12,24.12,0,0,0,41.19,5"/><polygon class="cls-1" points="24.74 7.07 41.08 1 41.08 29.16 24.23 35.96 24.74 7.07"/><path class="cls-1" d="M8.41,12s7.5-3.53,12.17-.78"/><path class="cls-1" d="M8.41,17s7.5-3.53,12.17-.78"/><path class="cls-1" d="M8.41,22s7.5-3.53,12.17-.78"/><path class="cls-1" d="M8.41,27s7.5-3.53,12.17-.78"/></g></g></svg>