<?xml version="1.0" encoding="utf-8"?>
<!-- Generator: Adobe Illustrator 26.1.0, SVG Export Plug-In . SVG Version: 6.00 Build 0)  -->
<svg version="1.1" id="Livello_1" xmlns="http://www.w3.org/2000/svg" xmlns:xlink="http://www.w3.org/1999/xlink" x="0px" y="0px"
	 viewBox="0 0 40.4 52.1" style="enable-background:new 0 0 40.4 52.1;" xml:space="preserve">
<style type="text/css">
	.st0{fill:none;stroke:#333333;stroke-width:2;stroke-linecap:round;stroke-linejoin:round;}
	.st1{fill:none;stroke:#343434;stroke-width:2;stroke-linecap:round;stroke-linejoin:round;}
	.st2{fill:none;stroke:#3B3735;stroke-width:2;stroke-linecap:round;stroke-linejoin:round;}
</style>
<line class="st0" x1="12.4" y1="10.8" x2="27.5" y2="10.8"/>
<line class="st0" x1="12.5" y1="14.8" x2="27.6" y2="14.8"/>
<g>
	<g id="Layer_2">
		<polyline class="st1" points="32,25.3 32,36.5 28.9,33.7 28.8,33.7 26.1,36.5 26.1,25.3 		"/>
		<path class="st1" d="M36.8,48.5H3.6c-0.4,0-0.8-0.3-0.8-0.8L1,25.4c0-0.4,0.3-0.8,0.8-1l0,0h36.8c0.4,0,0.8,0.4,0.8,0.8l0,0
			l-1.8,22.2C37.6,48.1,37.3,48.5,36.8,48.5z"/>
		<path class="st1" d="M28.7,20.5"/>
		<path class="st1" d="M20.1,24.5h16.9v-3.2c0-0.4-0.4-0.8-0.8-0.8h-3.2"/>
		<path class="st1" d="M20.2,24.6"/>
		<path class="st1" d="M3.9,24.6"/>
		<path class="st1" d="M19.8,24.5H2.9v-3.2c0-0.4,0.4-0.8,0.8-0.8H7"/>
		<path class="st1" d="M7.7,16.8"/>
		<path class="st1" d="M11.9,16.8"/>
		<circle class="st2" cx="9.2" cy="41.4" r="1.7"/>
		<path class="st2" d="M10.9,41.2v-9.4c0-0.1,0.1-0.3,0.3-0.3l7.8-1.3c0.1,0,0.3,0,0.4,0.3l0,0v9.7"/>
		<line class="st2" x1="19.4" y1="33.3" x2="10.9" y2="34.7"/>
		<circle class="st2" cx="17.8" cy="40.3" r="1.7"/>
	</g>
	<polyline class="st0" points="7.5,23.1 8.1,3.6 32,3.6 32,23.1 	"/>
	<line class="st0" x1="11.7" y1="18.3" x2="27.9" y2="18.3"/>
</g>
</svg>
