<svg xmlns="http://www.w3.org/2000/svg" viewBox="0 0 47.98 39.99"><defs><style>.cls-1,.cls-2{fill:none;stroke-linecap:round;stroke-linejoin:round;stroke-width:2px;}.cls-1{stroke:#343434;}.cls-2{stroke:#3b3735;}</style></defs><g id="Livello_2" data-name="Livello 2"><g id="Layer_2" data-name="Layer 2"><polyline class="cls-1" points="38.07 11.19 38.07 24.62 34.51 21.19 34.38 21.19 31.07 24.62 31.07 11.19"/><path class="cls-1" d="M43.88,39H4.11a1,1,0,0,1-1-.92L1,11.51a1,1,0,0,1,1-1.07H46a1,1,0,0,1,1,1.07L44.87,38.07A1,1,0,0,1,43.88,39Z"/><path class="cls-1" d="M20.35,5.53V2a1,1,0,0,0-1-1H5.5a1,1,0,0,0-1,1v8.44H43V6.53a1,1,0,0,0-1-1Z"/><circle class="cls-2" cx="10.88" cy="30.4" r="2.05"/><path class="cls-2" d="M12.91,30.25V19.17a.41.41,0,0,1,.35-.4l9.36-1.48a.4.4,0,0,1,.47.4V29.25"/><line class="cls-2" x1="23.11" y1="20.75" x2="12.93" y2="22.4"/><circle class="cls-2" cx="21.05" cy="29.25" r="2.05"/></g></g></svg>