<?xml version="1.0" encoding="utf-8"?>
<!-- Generator: Adobe Illustrator 26.1.0, SVG Export Plug-In . SVG Version: 6.00 Build 0)  -->
<svg version="1.1" id="Livello_1" xmlns="http://www.w3.org/2000/svg" xmlns:xlink="http://www.w3.org/1999/xlink" x="0px" y="0px"
	 viewBox="0 0 37.3 49" style="enable-background:new 0 0 37.3 49;" xml:space="preserve">
<style type="text/css">
	.st0{fill:none;stroke:#333333;stroke-linecap:round;stroke-linejoin:round;}
</style>
<g id="Livello_1-2">
	<path class="st0" d="M5,30.9v-1c1.9,0,3.4-1.5,3.4-3.4c0-1.9-1.5-3.4-3.4-3.4v-1c2.4,0,4.4,2,4.4,4.4C9.4,28.9,7.4,30.9,5,30.9z"/>
	<path class="st0" d="M24,26.5c0-4.9-1.9-9.7-5.4-13.2c0.2-0.2,0.5-0.5,0.7-0.7C23,16.3,25,21.3,25,26.5c0,2.4-0.4,4.8-1.3,7.1
		c-0.2-0.3-0.5-0.6-0.7-0.9C23.7,30.7,24,28.6,24,26.5z M22.6,33.8C19.6,40.9,12.7,45.5,5,45.5v1c7.9,0,15-4.6,18.2-11.8
		C23,34.3,22.8,34.1,22.6,33.8z M18.7,12C15,8.5,10.1,6.6,5,6.6v1c4.8,0,9.4,1.8,12.9,5.1C18.2,12.4,18.4,12.2,18.7,12z"/>
	<path class="st0" d="M5,15.3v-1c6.7,0,12.1,5.4,12.2,12.2c0,2.6-0.9,5.2-2.4,7.3c-0.1-0.4-0.3-0.7-0.4-1.1c1.2-1.8,1.9-4,1.9-6.2
		C16.2,20.3,11.2,15.3,5,15.3z M13.7,33.6c-2.1,2.6-5.3,4.1-8.6,4.1v1c3.4,0,6.7-1.5,9-4C13.9,34.3,13.8,34,13.7,33.6z"/>
	<path class="st0" d="M32.3,30.9c-2.4-0.1-4.3-2.1-4.3-4.5c0.1-2.3,1.9-4.2,4.3-4.3v1c-1.9,0.1-3.4,1.6-3.3,3.5
		c0.1,1.8,1.5,3.3,3.3,3.3V30.9z"/>
	<path class="st0" d="M18,40.4c-5.4-5.6-7.1-13.8-4.3-21c0.2,0.3,0.5,0.6,0.7,0.9C12,27,13.7,34.6,18.6,39.7
		C18.4,39.9,18.2,40.1,18,40.4z M18.6,41c3.7,3.5,8.6,5.4,13.6,5.4v-1c-4.8,0-9.4-1.8-12.9-5.1C19.1,40.6,18.9,40.8,18.6,41z
		 M14.1,18.4c0.2,0.3,0.5,0.5,0.7,0.8c2.9-7.1,9.9-11.7,17.5-11.7v-1C24.4,6.6,17.3,11.2,14.1,18.4z"/>
	<path class="st0" d="M32.3,37.7v1c-6.7,0-12.2-5.4-12.2-12.1c0-2.6,0.9-5.2,2.4-7.3c0.1,0.4,0.3,0.7,0.4,1.1
		c-3.4,5.1-2,12.1,3.1,15.5C27.9,37,30.1,37.7,32.3,37.7z M23.2,18.4c0.1,0.3,0.3,0.7,0.4,1c2.1-2.6,5.3-4.1,8.6-4.1v-1
		C28.8,14.3,25.5,15.8,23.2,18.4z"/>
</g>
</svg>
