<?xml version="1.0" encoding="utf-8"?>
<!-- Generator: Adobe Illustrator 26.1.0, SVG Export Plug-In . SVG Version: 6.00 Build 0)  -->
<svg version="1.1" id="Livello_1" xmlns="http://www.w3.org/2000/svg" xmlns:xlink="http://www.w3.org/1999/xlink" x="0px" y="0px"
	 viewBox="0 0 42.9 42.5" style="enable-background:new 0 0 42.9 42.5;" xml:space="preserve">
<style type="text/css">
	.st0{fill:none;stroke:#333333;stroke-width:2;stroke-linecap:round;stroke-linejoin:round;}
	.st1{fill:#333333;stroke:#333333;stroke-width:0.5;stroke-linecap:round;stroke-linejoin:round;stroke-miterlimit:10;}
</style>
<g>
	<circle class="st0" cx="32.9" cy="11.7" r="8.9"/>
	<line class="st0" x1="35.4" y1="11.7" x2="30.4" y2="11.7"/>
	<line class="st0" x1="32.9" y1="14.3" x2="32.9" y2="9.2"/>
</g>
<g id="Livello_1-2">
	<path class="st1" d="M2.6,25.8v-1c2,0,3.5-1.6,3.5-3.5s-1.6-3.5-3.5-3.5v-1c2.5,0,4.6,2.1,4.6,4.6S5.1,25.8,2.6,25.8z"/>
	<path class="st1" d="M22.4,21.2c0-5.1-2-10.1-5.6-13.7C17,7.3,17.3,7,17.5,6.8c3.8,3.8,5.9,9,5.9,14.4c0,2.5-0.4,5-1.3,7.4
		c-0.2-0.3-0.5-0.6-0.7-0.9C22,25.6,22.4,23.4,22.4,21.2z M20.9,28.8c-3.1,7.4-10.3,12.1-18.3,12.1v1c8.2,0,15.6-4.8,18.9-12.2
		C21.3,29.3,21.1,29.1,20.9,28.8z M16.9,6.1C13,2.5,7.9,0.5,2.6,0.5v1c5,0,9.8,1.9,13.4,5.3C16.3,6.6,16.5,6.3,16.9,6.1z"/>
	<path class="st1" d="M2.6,9.6v-1c7,0,12.6,5.6,12.7,12.7c0,2.7-0.9,5.4-2.5,7.6c-0.1-0.4-0.3-0.7-0.4-1.1c1.2-1.9,2-4.2,2-6.4
		C14.3,14.8,9.1,9.6,2.6,9.6z M11.7,28.6c-2.2,2.7-5.5,4.3-8.9,4.3v1c3.5,0,7-1.6,9.3-4.2C11.9,29.3,11.8,29,11.7,28.6z"/>
	<path class="st1" d="M27.5,21.3c0-0.1,0-0.3,0-0.4c-0.3-0.2-0.7-0.4-0.9-0.6c-0.1,0.3-0.1,0.5-0.1,0.8c0,2.5,2,4.6,4.5,4.7v-1
		C29.1,24.7,27.6,23.2,27.5,21.3z"/>
	<path class="st1" d="M23.4,3l0-1.1c-5,2-9.1,5.8-11.3,10.9c0.2,0.3,0.5,0.5,0.7,0.8C14.8,8.7,18.7,5,23.4,3z"/>
	<path class="st1" d="M16.7,36.2c3.8,3.6,8.9,5.6,14.1,5.6v-1c-5,0-9.8-1.9-13.4-5.3C17.3,35.8,17.1,36,16.7,36.2z"/>
	<path class="st1" d="M12.4,14.8c-0.2-0.3-0.5-0.6-0.7-0.9c-2.9,7.5-1.1,16,4.5,21.8c0.2-0.3,0.4-0.5,0.6-0.7
		C11.7,29.6,9.9,21.7,12.4,14.8z"/>
	<path class="st1" d="M21.2,14.9c-0.1-0.4-0.3-0.7-0.4-1.1c-1.6,2.2-2.5,4.9-2.5,7.6c0,7,5.7,12.6,12.7,12.6v-1
		c-2.3,0-4.6-0.7-6.5-1.9C19.1,27.4,17.7,20.2,21.2,14.9z"/>
</g>
</svg>
