<?xml version="1.0" encoding="utf-8"?>
<!-- Generator: Adobe Illustrator 26.1.0, SVG Export Plug-In . SVG Version: 6.00 Build 0)  -->
<svg version="1.1" id="Livello_1" xmlns="http://www.w3.org/2000/svg" xmlns:xlink="http://www.w3.org/1999/xlink" x="0px" y="0px"
	 viewBox="0 0 37.3 49" style="enable-background:new 0 0 37.3 49;" xml:space="preserve">
<style type="text/css">
	.st0{fill:none;stroke:#3B3735;stroke-width:2;stroke-linecap:round;stroke-linejoin:round;}
</style>
<path class="st0" d="M21.3,29.7l3.7,3.7c0.3,0.3,0.3,0.7,0,1l-8.9,8.9c-1.3,1.3-3.4,1.3-4.7,0l0,0l0,0c-1.3-1.3-1.3-3.4,0-4.7l0,0
	l8.9-8.9C20.6,29.4,21,29.4,21.3,29.7L21.3,29.7z"/>
<path class="st0" d="M33.7,21L33.7,21c0.6,0.6,0.6,1.5,0,2.1l0,0l-9.5,9.5l0,0l-2.1-2.1l0,0l9.5-9.5C32.2,20.4,33.1,20.4,33.7,21z"
	/>
<line class="st0" x1="19" y1="31.1" x2="23.5" y2="35.7"/>
<path class="st0" d="M11.4,43.7l-2.2,2.2c-1.5,1.5-3.9,1.5-5.4,0l0,0l0,0c-1.5-1.5-1.5-3.9,0-5.4l0,0l6.4-6.4c1.5-1.5,1.5-3.9,0-5.4
	l0,0l0,0c-1.5-1.5-3.9-1.5-5.4,0l-3.2,3.2"/>
<path class="st0" d="M3.7,8.4c2.4,0,4.6,1.1,6,3c1.5,2.2,1.7,5,0.6,7.3c-0.7-3.5,1.6-6.8,5-7.5c1.9-0.4,3.8,0.1,5.3,1.3
	c-3.2,0.1-6.1-1.8-7.2-4.8c-0.7-2-0.4-4.2,0.6-6c-0.2,2.5-1.5,4.7-3.6,6C8.3,8.9,5.8,9.2,3.7,8.4z"/>
<path class="st0" d="M25.9,4.7c1.5,0,2.8,0.7,3.7,1.9c0.9,1.3,1.1,3.1,0.4,4.5c-0.4-2.1,1-4.2,3.1-4.6c1.1-0.2,2.3,0.1,3.2,0.8
	c-2,0-3.7-1.1-4.5-2.9c-0.4-1.2-0.3-2.6,0.4-3.7c-0.1,1.5-1,2.9-2.2,3.7C28.8,5,27.3,5.2,25.9,4.7z"/>
</svg>
