<?xml version="1.0" encoding="utf-8"?>
<!-- Generator: Adobe Illustrator 26.1.0, SVG Export Plug-In . SVG Version: 6.00 Build 0)  -->
<svg version="1.1" id="Livello_1" xmlns="http://www.w3.org/2000/svg" xmlns:xlink="http://www.w3.org/1999/xlink" x="0px" y="0px"
	 viewBox="0 0 37.3 49" style="enable-background:new 0 0 37.3 49;" xml:space="preserve">
<style type="text/css">
	.st0{fill:none;stroke:#333333;stroke-width:2;stroke-linecap:round;stroke-linejoin:round;}
</style>
<g id="Livello_2_00000122691864092059867430000002648747074238990243_">
	<g id="Layer_2">
		<path class="st0" d="M15,48h14.9c2.2-2.2,3.7-4.9,4.5-7.8l2-10.3c0-1.6-0.9-2.9-2.6-2.9s-2.5,1.4-2.5,3v-2.8c-0.2-1.7-1.6-3-3.4-3
			c-1.7,0-2.6,1.3-2.6,3v-2.3c0-1.7-1.3-3-3-3s-3,1.3-3,3V13c0-4-6-4-6,0v21.4l-4.7-3.7c-2.5-2.3-5-3.2-7.5-0.9l11,15.3
			C12.7,46.3,13.8,47.3,15,48z"/>
		<path class="st0" d="M10.2,19h-6c-1,0.1-1.9-0.6-2-1.6c0-0.1,0-0.3,0-0.4V3.7c0-1.3,0.7-2.7,2-2.7h27.3c1.4,0.1,2.6,1.3,2.7,2.7
			V17c0,1.3-1.4,2-2.7,2h-9.3"/>
	</g>
</g>
</svg>
