<svg xmlns="http://www.w3.org/2000/svg" viewBox="0 0 37.33 49"><defs><style>.cls-1{fill:none;stroke:#333;stroke-linecap:round;stroke-linejoin:round;stroke-width:2px;}</style></defs><g id="Livello_2" data-name="Livello 2"><g id="Layer_2" data-name="Layer 2"><path class="cls-1" d="M15,48H29.86a16.73,16.73,0,0,0,4.46-7.83l2-10.27c0-1.64-.9-2.93-2.62-2.93s-2.49,1.38-2.49,3V27.2a3.29,3.29,0,0,0-3.37-3c-1.72,0-2.63,1.33-2.63,3V24.89a3,3,0,0,0-6,0V13c0-4-6-4-6,0V34.36L8.46,30.7C6,28.38,3.43,27.45,1,29.77L12,45.09A7.82,7.82,0,0,0,15,48Z"/><path class="cls-1" d="M10.22,19h-6a1.82,1.82,0,0,1-2-2V3.73c0-1.31.72-2.73,2-2.73H31.52a3,3,0,0,1,2.7,2.73V17c0,1.31-1.4,2-2.7,2h-9.3"/></g></g></svg>