<?xml version="1.0" encoding="utf-8"?>
<!-- Generator: Adobe Illustrator 26.1.0, SVG Export Plug-In . SVG Version: 6.00 Build 0)  -->
<svg version="1.1" id="Livello_1" xmlns="http://www.w3.org/2000/svg" xmlns:xlink="http://www.w3.org/1999/xlink" x="0px" y="0px"
	 viewBox="0 0 37.3 48" style="enable-background:new 0 0 37.3 48;" xml:space="preserve">
<style type="text/css">
	.st0{fill:none;stroke:#3B3735;stroke-width:2;stroke-linecap:round;stroke-linejoin:round;}
</style>
<path class="st0" d="M6,40.9H3.4c-0.9,0-1.7-0.6-1.7-1.6V22.8c0-0.8,0.7-1.6,1.7-1.6H6c0.9,0,1.7,0.6,1.7,1.6v16.6
	C7.7,40.2,6.9,40.9,6,40.9z"/>
<path class="st0" d="M15.3,40.9h-2.6c-0.9,0-1.7-0.6-1.7-1.6V27c0-0.8,0.7-1.6,1.7-1.6h2.6c0.9,0,1.7,0.6,1.7,1.6v12.4
	C16.9,40.2,16.2,40.9,15.3,40.9z"/>
<path class="st0" d="M24.5,40.6h-2.6c-0.9,0-1.7-0.6-1.7-1.6V20.9c0-0.8,0.7-1.6,1.7-1.6h2.6c0.9,0,1.7,0.6,1.7,1.6v18.3
	C26.2,40,25.4,40.6,24.5,40.6z"/>
<path class="st0" d="M33.8,40.6h-2.6c-0.9,0-1.7-0.6-1.7-1.6V24.2c0-0.8,0.7-1.6,1.7-1.6h2.6c0.9,0,1.7,0.6,1.7,1.6v14.9
	C35.4,40,34.7,40.6,33.8,40.6z"/>
<ellipse class="st0" cx="4.6" cy="6.9" rx="2.7" ry="2.7"/>
<ellipse class="st0" cx="13.4" cy="12.9" rx="2.7" ry="2.7"/>
<ellipse class="st0" cx="22.8" cy="6.2" rx="2.7" ry="2.7"/>
<ellipse class="st0" cx="32.5" cy="12.6" rx="2.7" ry="2.7"/>
<line class="st0" x1="7.3" y1="9.1" x2="10.7" y2="12"/>
<line class="st0" x1="16.1" y1="12.6" x2="20.3" y2="8.2"/>
<line class="st0" x1="25.5" y1="7.7" x2="29.8" y2="10.6"/>
</svg>
