<?xml version="1.0" encoding="utf-8"?>
<!-- Generator: Adobe Illustrator 26.1.0, SVG Export Plug-In . SVG Version: 6.00 Build 0)  -->
<svg version="1.1" id="Livello_1" xmlns="http://www.w3.org/2000/svg" xmlns:xlink="http://www.w3.org/1999/xlink" x="0px" y="0px"
	 viewBox="0 0 46 61.5" style="enable-background:new 0 0 46 61.5;" xml:space="preserve">
<style type="text/css">
	.st0{fill:none;stroke:#3B3735;stroke-width:2;stroke-linecap:round;stroke-linejoin:round;}
</style>
<g id="Livello_2_00000004544880345366894530000011701029301253247645_">
	<g id="Layer_2">
		<path class="st0" d="M12.3,57.1c-12.6-6.6-8.6-13.9-6.1-16.3c2.1-1.9,4.4-3.5,6.8-5c0,0,4.2-2.7,3.2-7.5c-0.8-4,5-11.3,5-11.3
			s-2.4,9.7,0.4,11.3c2.7,1.6,3.2-0.4,5.6,0.6"/>
		<path class="st0" d="M12.3,57.1c12.6,6.6,16.3-0.9,16.8-4.3c0.5-3.4-0.4-6.3-0.2-8.6c0,0-0.2-4.3,5.2-7.4c3.4-2,3.8-6.5,3.8-6.5
			s-4.5,4.2-7.4,2.9S29,30.3,26.8,29"/>
		<path class="st0" d="M7.9,46.5c0.4,1.1,1.9,4.3,5.5,6.6c3.7,2.3,7.3,2.1,8.4,2"/>
		<line class="st0" x1="16.7" y1="44.9" x2="19.8" y2="46.5"/>
		<polyline class="st0" points="28.2,30.2 37.3,12.9 34.2,11.4 25.2,28.6 		"/>
		<line class="st0" x1="36.4" y1="2.2" x2="37.4" y2="2.7"/>
		<line class="st0" x1="33.8" y1="4.7" x2="34.8" y2="5.2"/>
		<line class="st0" x1="31.2" y1="7.2" x2="33.2" y2="8.3"/>
		<path class="st0" d="M37.3,12.9l-3.9-2.1c-0.6-0.3-0.8-1-0.5-1.5c0-0.1,0.1-0.1,0.1-0.2l5.1-6.7C38.4,1.9,39,1.8,39.5,2l2.7,1.4
			c0.6,0.3,0.8,1,0.5,1.5l0,0l-3.9,7.4C38.5,13,37.9,13.2,37.3,12.9C37.3,13,37.3,13,37.3,12.9z"/>
		<line class="st0" x1="18.7" y1="42.2" x2="23.8" y2="32.1"/>
		<line class="st0" x1="20.7" y1="43.6" x2="25.8" y2="33.5"/>
		<line class="st0" x1="12.8" y1="46.7" x2="19.8" y2="50.8"/>
	</g>
</g>
</svg>
