<svg xmlns="http://www.w3.org/2000/svg" viewBox="0 0 47.18 53.18"><defs><style>.cls-1,.cls-2{fill:none;stroke-linecap:round;stroke-linejoin:round;stroke-width:2px;}.cls-1{stroke:#343434;}.cls-2{stroke:#3b3735;}</style></defs><g id="Livello_2" data-name="Livello 2"><g id="Layer_2" data-name="Layer 2"><line class="cls-1" x1="27.23" y1="22.94" x2="41.08" y2="22.94"/><path class="cls-1" d="M46.18,22.94v25.3a3.93,3.93,0,0,1-3.94,3.94H2.1A1.1,1.1,0,0,1,1,51.08V24a1.1,1.1,0,0,1,1.1-1.1H7.85"/><path class="cls-1" d="M46.18,48l-.94-1.06a5.54,5.54,0,0,0-4.16-1.83h0V19.29h1.09a4,4,0,0,1,4,4Z"/><path class="cls-1" d="M29.58,45.38,17,45.44a3.74,3.74,0,0,1-3.41-4h0a3.73,3.73,0,0,1,3.6-3.83L21,37.7a3.72,3.72,0,0,0,3.6-3.83h0a3.73,3.73,0,0,0-3.42-4l-2.67-.06"/><circle class="cls-1" cx="33.07" cy="45.49" r="2.72"/><circle class="cls-2" cx="12.73" cy="29.62" r="4.9"/><line class="cls-2" x1="17.84" y1="29.54" x2="17.84" y2="2.2"/><path class="cls-2" d="M17.84,1S20.51,6.06,24,7.1c2.6.77,6.28,4.21,5.68,12.42,0,0-3-6.15-6.65-7.7S17.84,9,17.84,1Z"/></g></g></svg>