<?xml version="1.0" encoding="utf-8"?>
<!-- Generator: Adobe Illustrator 26.1.0, SVG Export Plug-In . SVG Version: 6.00 Build 0)  -->
<svg version="1.1" id="Livello_1" xmlns="http://www.w3.org/2000/svg" xmlns:xlink="http://www.w3.org/1999/xlink" x="0px" y="0px"
	 viewBox="0 0 42.9 42.5" style="enable-background:new 0 0 42.9 42.5;" xml:space="preserve">
<style type="text/css">
	.st0{fill:none;stroke:#333333;stroke-width:2;stroke-linecap:round;stroke-linejoin:round;}
	.st1{fill:none;stroke:#333333;stroke-width:2;stroke-linejoin:round;stroke-miterlimit:10;}
	.st2{fill:none;stroke:#333333;stroke-width:3;stroke-linecap:round;stroke-linejoin:round;}
</style>
<g id="Livello_2_00000070104413188760102100000002696261388213290140_">
	<g id="Layer_2">
		<circle class="st0" cx="16.2" cy="16.2" r="15.2"/>
		<path class="st0" d="M27,27c-0.5,0.5-1.1,1-1.7,1.5l12.4,12.4c0.9,0.9,2.3,0.9,3.2,0l0.3-0.4c0.9-0.9,0.9-2.3,0-3.2L28.8,24.9
			C28.3,25.7,27.7,26.4,27,27z"/>
	</g>
</g>
<line class="st1" x1="36.3" y1="39.5" x2="39.3" y2="36.7"/>
<line class="st0" x1="41.9" y1="14.6" x2="34.7" y2="14.6"/>
<line class="st2" x1="20.5" y1="16.2" x2="11.9" y2="16.2"/>
<line class="st0" x1="41.9" y1="19.5" x2="34.7" y2="19.5"/>
<line class="st0" x1="41.9" y1="9.6" x2="34.7" y2="9.6"/>
<line class="st2" x1="16.2" y1="20.5" x2="16.2" y2="11.8"/>
</svg>
