<svg xmlns="http://www.w3.org/2000/svg" viewBox="0 0 40.4 50.17"><defs><style>.cls-1,.cls-2{fill:none;stroke-linecap:round;stroke-linejoin:round;stroke-width:2px;}.cls-1{stroke:#343434;}.cls-2{stroke:#3b3735;}</style></defs><g id="Livello_2" data-name="Livello 2"><g id="Layer_2" data-name="Layer 2"><path class="cls-1" d="M19,13.09A18,18,0,1,0,33.2,19.94"/><path class="cls-1" d="M19,13.09c-5.43,0-9.82,8.07-9.82,18s4.39,18,9.82,18,9.82-8.08,9.82-18a31.39,31.39,0,0,0-.69-6.67"/><line class="cls-1" x1="35.4" y1="24.51" x2="2.4" y2="24.51"/><line class="cls-1" x1="35.4" y1="37.51" x2="2.4" y2="37.51"/><line class="cls-1" x1="18.4" y1="13.51" x2="18.4" y2="48.51"/><circle class="cls-2" cx="24.97" cy="16.48" r="2.41"/><path class="cls-2" d="M27.37,16.3V3.23a.48.48,0,0,1,.41-.48L38.83,1a.47.47,0,0,1,.55.47V15.13"/><line class="cls-2" x1="39.4" y1="5.09" x2="27.39" y2="7.03"/><circle class="cls-2" cx="36.97" cy="15.13" r="2.41"/></g></g></svg>